<?xml version="1.0" encoding="utf-8"?>
<!-- Generator: Adobe Illustrator 21.0.0, SVG Export Plug-In . SVG Version: 6.00 Build 0)  -->
<svg version="1.1" id="Capa_1" xmlns="http://www.w3.org/2000/svg" xmlns:xlink="http://www.w3.org/1999/xlink" x="0px" y="0px"
	 viewBox="0 0 512 515" style="enable-background:new 0 0 512 515;" xml:space="preserve">
<g>
	<path d="M459.8,71L395.9,5.3c-3.4-1.6-5.4-1.6-8-1.8H81C64.7,3.5,51.5,16.7,51.5,33v456c0,16.3,13.2,29.5,29.5,29.5h350.3
		c16.3,0,29.5-13.2,29.5-29.5V80.1c0.2-0.3,0,0.4,0,0C460.5,76.4,461.2,73.8,459.8,71z M398,29l38.6,39.7H398V29z M431.3,503.5H81
		c-8,0-14.5-6.5-14.5-14.5V33c0-8,6.5-14.5,14.5-14.5h302v57.7c0,4.2,3.4,7.5,7.5,7.5h55.3V489C445.8,497,439.3,503.5,431.3,503.5z"
		/>
	<path d="M172.2,122.8c-3.3-2.5-8-1.9-10.5,1.4l-33.2,43.7l-10-8.7c-3.1-2.7-7.9-2.4-10.6,0.7c-2.7,3.1-2.4,7.9,0.7,10.6l16,14
		c1.4,1.2,3.1,1.9,4.9,1.9c0.3,0,0.5,0,0.8,0c2.1-0.2,4-1.3,5.2-2.9l38.1-50.1C176.2,130,175.6,125.3,172.2,122.8z"/>
	<path d="M398.4,121.3H209.1c-4.1,0-7.5,3.4-7.5,7.5s3.4,7.5,7.5,7.5h189.3c4.2,0,7.5-3.4,7.5-7.5S402.6,121.3,398.4,121.3z"/>
	<path d="M209.1,161.4H332c4.2,0,7.5-3.4,7.5-7.5s-3.4-7.5-7.5-7.5H209.1c-4.1,0-7.5,3.4-7.5,7.5S205,161.4,209.1,161.4z"/>
	<path d="M209.1,186.4h150.9c4.2,0,7.5-3.4,7.5-7.5s-3.4-7.5-7.5-7.5H209.1c-4.1,0-7.5,3.4-7.5,7.5S205,186.4,209.1,186.4z"/>
	<path d="M172.2,235c-3.3-2.5-8-1.9-10.5,1.4l-33.2,43.7l-10-8.7c-3.1-2.7-7.9-2.4-10.6,0.7c-2.7,3.1-2.4,7.9,0.7,10.6l16,14
		c1.4,1.2,3.1,1.9,4.9,1.9c0.3,0,0.5,0,0.8,0c2.1-0.2,4-1.3,5.2-2.9l38.1-50.1C176.2,242.2,175.6,237.5,172.2,235z"/>
	<path d="M398.4,233.5H209.1c-4.1,0-7.5,3.4-7.5,7.5s3.4,7.5,7.5,7.5h189.3c4.2,0,7.5-3.4,7.5-7.5
		C405.9,236.8,402.6,233.5,398.4,233.5z"/>
	<path d="M209.1,273.6H332c4.2,0,7.5-3.4,7.5-7.5s-3.4-7.5-7.5-7.5H209.1c-4.1,0-7.5,3.4-7.5,7.5S205,273.6,209.1,273.6z"/>
	<path d="M209.1,298.6h150.9c4.2,0,7.5-3.4,7.5-7.5s-3.4-7.5-7.5-7.5H209.1c-4.1,0-7.5,3.4-7.5,7.5S205,298.6,209.1,298.6z"/>
	<path d="M398.4,355.7H209.1c-4.1,0-7.5,3.4-7.5,7.5s3.4,7.5,7.5,7.5h189.3c4.2,0,7.5-3.4,7.5-7.5
		C405.9,359,402.6,355.7,398.4,355.7z"/>
	<path d="M209.1,395.8H332c4.2,0,7.5-3.4,7.5-7.5s-3.4-7.5-7.5-7.5H209.1c-4.1,0-7.5,3.4-7.5,7.5S205,395.8,209.1,395.8z"/>
	<path d="M360.1,405.8H209.1c-4.1,0-7.5,3.4-7.5,7.5s3.4,7.5,7.5,7.5h150.9c4.2,0,7.5-3.4,7.5-7.5S364.2,405.8,360.1,405.8z"/>
	<path d="M158.7,355.7h-40.1c-6.9,0-12.5,5.6-12.5,12.5v40.1c0,6.9,5.6,12.5,12.5,12.5h40.1c6.9,0,12.5-5.6,12.5-12.5v-40.1
		C171.2,361.3,165.6,355.7,158.7,355.7z M156.2,405.8h-35.1v-35.1h35.1V405.8z"/>
</g>
</svg>
