<?xml version="1.0" encoding="utf-8"?>
<!-- Generator: Adobe Illustrator 21.0.0, SVG Export Plug-In . SVG Version: 6.00 Build 0)  -->
<svg version="1.1" id="Слой_1" xmlns="http://www.w3.org/2000/svg" xmlns:xlink="http://www.w3.org/1999/xlink" x="0px" y="0px"
	 width="444px" height="324px" viewBox="0 0 444 324" style="enable-background:new 0 0 444 324;" xml:space="preserve">
<style type="text/css">
	.st0{fill:none;stroke:#000000;stroke-width:10;stroke-miterlimit:10;}
	.st1{fill:none;stroke:#000000;stroke-width:10;stroke-linecap:round;stroke-miterlimit:10;}
</style>
<path class="st0" d="M21.3,158.8l17.9,13.1c6.7,4.9,16.2,3.4,21.1-3.3l88-120.7c4.9-6.7,3.4-16.2-3.3-21.1l-17.9-13.1
	c-6.7-4.9-16.2-3.4-21.1,3.3L18,137.7C13,144.5,14.5,153.9,21.3,158.8z"/>
<path class="st0" d="M401.3,196.2l21.4-5.9c8-2.2,12.8-10.5,10.6-18.6L393.8,27.8c-2.2-8-10.5-12.8-18.6-10.6L353.9,23
	c-8,2.2-12.8,10.5-10.6,18.6l39.4,144.1C384.9,193.7,393.3,198.4,401.3,196.2z"/>
<path class="st1" d="M343.3,41.6c0,0-22.4,6.3-41.4,6.3s-83.5-5-93,0s-32.5,17-41,36s-16,27-9,39s18.5,11.5,31.5,0s20.5-27,33.5-27
	s27.5,11.1,62.5,35.8s69.5,42.2,74,56.2s5,29-9,30.5s-19.5-2-28.5-8s-35-24.5-35-24.5"/>
<path class="st1" d="M145.2,52.2c0,0,45,6.6,49.8,3.6"/>
<line class="st1" x1="64.5" y1="162.9" x2="75.9" y2="198.6"/>
<path class="st1" d="M74.1,234.4L74.1,234.4c7.9,6.9,19.9,6.2,26.8-1.7l22-24.9c6.9-7.9,6.2-19.9-1.7-26.8l0,0
	c-7.9-6.9-19.9-6.2-26.8,1.7l-22,24.9C65.5,215.4,66.2,227.4,74.1,234.4z"/>
<path class="st1" d="M146.6,286L146.6,286c7.9,6.9,19.9,6.2,26.8-1.7l21.7-24.6c6.9-7.9,6.2-19.9-1.7-26.8l0,0
	c-7.9-6.9-19.9-6.2-26.8,1.7l-21.7,24.6C137.9,267.1,138.7,279,146.6,286z"/>
<path class="st1" d="M104.8,265.3l3.4,3c7.9,6.9,19.9,6.2,26.8-1.7l27.5-31.3c6.9-7.9,6.2-19.9-1.7-26.8l-3.4-3
	c-7.9-6.9-19.9-6.2-26.8,1.7l-27.5,31.3C96.2,246.4,96.9,258.4,104.8,265.3z"/>
<path class="st1" d="M187.5,304.3l3.4,3c7.9,6.9,19.9,6.2,26.8-1.7l10.7-12.1c6.9-7.9,6.2-19.9-1.7-26.8l-3.4-3
	c-7.9-6.9-19.9-6.2-26.8,1.7l-10.7,12.1C178.8,285.3,179.6,297.3,187.5,304.3z"/>
<path class="st1" d="M326.4,215.9c4.5,14,5,29-9,30.5s-19.5-2-28.5-8s-18-13.5-18-13.5"/>
<path class="st1" d="M295.2,247.1c4.5,14,5,29-9,30.5s-19.5-2-28.5-8s-9-6.5-9-6.5"/>
<path class="st1" d="M263.3,278.6c4.5,14,5,29-9,30.5s-15.5,0-24.5-6s-1-0.5-1-0.5"/>
<line class="st1" x1="360.4" y1="187.9" x2="382.7" y2="185.6"/>
</svg>
