<?xml version="1.0" encoding="utf-8"?>
<!-- Generator: Adobe Illustrator 21.0.0, SVG Export Plug-In . SVG Version: 6.00 Build 0)  -->
<svg version="1.1" id="Capa_1" xmlns="http://www.w3.org/2000/svg" xmlns:xlink="http://www.w3.org/1999/xlink" x="0px" y="0px"
	 width="416px" height="416px" viewBox="0 0 416 416" style="enable-background:new 0 0 416 416;" xml:space="preserve">
<g>
	<g>
		<g>
			<path d="M388,87.3L388,87.3l-113.5,0.1V64.6c0-12.8-10.4-23.1-23.1-23.1h-90c-6.1,0-12,2.5-16.3,6.8s-6.8,10.2-6.8,16.3v22.8H28
				c-15.5,0-28,12.5-28,28v229c0,16.6,13.5,30.1,30.1,30.1h355.5c16.7,0.1,30.3-13.3,30.4-30v-0.1V115.3
				C416,99.8,403.5,87.3,388,87.3z M149.8,64.6c0-6.4,5.2-11.6,11.6-11.6h89.9c6.4,0,11.6,5.2,11.6,11.6v22.8H149.8V64.6z
				 M11.6,117.3c0-10.3,8.4-18.6,18.6-18.6h355.5c10.3,0,18.6,8.4,18.6,18.6l-0.1,112.1c0,9-7.4,16.4-16.4,16.4H232v-16.2
				c0-7.7-6.2-13.9-13.9-13.9h-20.3c-3.7,0-7.2,1.4-9.8,4s-4,6.1-4,9.8v16.2H28c-9,0-16.4-7.4-16.4-16.4V117.3z M195.3,245.8v-16.2
				c0-0.6,0.3-1.1,0.7-1.6c0.4-0.4,1.1-0.7,1.7-0.7H218c1.3,0,2.4,1.1,2.4,2.4V246L195.3,245.8z M220.4,257.3v16.2
				c0,0.6-0.2,1.2-0.7,1.7c-0.4,0.4-1.1,0.7-1.7,0.7h-20.2c-1.3,0-2.4-1.1-2.4-2.4v-16.2L220.4,257.3L220.4,257.3z M404.4,344.4
				c0,10.3-8.4,18.6-18.6,18.6H30.2c-10.3,0-18.6-8.4-18.6-18.6V252c4.8,3.5,10.5,5.3,16.4,5.3h156v16.2c0,7.7,6.2,13.9,13.9,13.9
				h20.3c3.7,0,7.2-1.4,9.8-4s4-6.1,4-9.8v-16.4h156c5.9,0,11.7-1.8,16.4-5.3V344.4L404.4,344.4z"/>
			<path d="M385.8,375.5c-0.1,0-0.1,0-0.2,0H30.1C13,375.5-1,361.5-1,344.4v-229c0-16,13-29,29-29h109.3V64.6c0-6.3,2.6-12.5,7.1-17
				c4.5-4.5,10.7-7.1,17-7.1h90c13.3,0,24.1,10.8,24.1,24.1v21.8H387v-0.1h1c16,0,29,13,29,29v229.2c0,8.3-3.3,16.2-9.3,22
				C401.8,372.3,394.1,375.5,385.8,375.5z M28,88.4c-14.9,0-27,12.1-27,27v229c0,16,13.1,29.1,29.1,29.1h355.5
				c7.8,0,15.2-2.9,20.7-8.4c5.5-5.5,8.6-12.8,8.7-20.6V115.3c0-14.6-11.6-26.5-26-27v0.1H273.5V64.6c0-12.2-9.9-22.1-22.1-22.1h-90
				c-5.8,0-11.5,2.4-15.6,6.5c-4.1,4.1-6.5,9.8-6.5,15.6v23.8H28z M385.8,364H30.2c-10.8,0-19.6-8.8-19.6-19.6V250l1.6,1.2
				c4.6,3.3,10,5.1,15.8,5.1h157v17.2c0,7.1,5.8,12.9,12.9,12.9h20.3c3.5,0,6.7-1.3,9.1-3.7c2.4-2.4,3.7-5.6,3.7-9.1v-17.4h157
				c5.8,0,11.4-1.8,15.8-5.1l1.6-1.2v94.5C405.4,355.2,396.6,364,385.8,364z M12.6,253.9v90.5c0,9.7,7.9,17.6,17.6,17.6h355.6
				c9.7,0,17.6-7.9,17.6-17.6v-90.6c-4.5,2.8-9.9,4.4-15.4,4.4H233v15.4c0,4-1.5,7.7-4.3,10.5c-2.8,2.8-6.5,4.3-10.5,4.3h-20.3
				c-8.2,0-14.9-6.7-14.9-14.9v-15.2H28C22.5,258.3,17.2,256.8,12.6,253.9z M218,276.9h-20.2c-1.8,0-3.4-1.6-3.4-3.4v-17.2h27v17.2
				c0,0.9-0.3,1.8-1,2.4C219.8,276.5,218.8,276.9,218,276.9z M196.4,258.3v15.2c0,0.7,0.7,1.4,1.4,1.4H218c0.3,0,0.8-0.2,1-0.4
				c0.3-0.3,0.4-0.6,0.4-1v-15.2H196.4z M221.4,247l-27.1-0.2v-17.2c0-1,0.5-1.7,0.9-2.2l0.1-0.1c0.6-0.6,1.6-1,2.4-1H218
				c1.8,0,3.4,1.6,3.4,3.4V247z M196.3,244.8l23.1,0.2v-15.3c0-0.7-0.7-1.4-1.4-1.4h-20.3c-0.3,0-0.7,0.2-1,0.4
				c-0.3,0.4-0.4,0.7-0.4,0.9V244.8z M387.8,246.8H231v-17.2c0-7.1-5.8-12.9-12.9-12.9h-20.3c-3.5,0-6.7,1.3-9.1,3.7
				c-2.4,2.4-3.7,5.6-3.7,9.1v17.2H28c-9.6,0-17.4-7.8-17.4-17.4v-112c0-10.8,8.8-19.6,19.6-19.6h355.5c10.8,0,19.6,8.8,19.6,19.6
				l-0.1,112.1C405.2,239,397.4,246.8,387.8,246.8z M233,244.8h154.8c8.5,0,15.4-6.9,15.4-15.4l0.1-112.1c0-9.7-7.9-17.6-17.6-17.6
				H30.2c-9.7,0-17.6,7.9-17.6,17.6v112c0,8.5,6.9,15.4,15.4,15.4h155v-15.2c0-4,1.5-7.7,4.3-10.5c2.8-2.8,6.5-4.3,10.5-4.3h20.3
				c8.2,0,14.9,6.7,14.9,14.9V244.8z M263.9,88.4H148.8V64.6c0-6.9,5.7-12.6,12.6-12.6h89.9c6.9,0,12.6,5.7,12.6,12.6V88.4z
				 M150.8,86.4h111.1V64.6c0-5.8-4.8-10.6-10.6-10.6h-89.9c-5.8,0-10.6,4.8-10.6,10.6V86.4z"/>
		</g>
	</g>
</g>
</svg>
