<?xml version="1.0" encoding="utf-8"?>
<!-- Generator: Adobe Illustrator 21.0.0, SVG Export Plug-In . SVG Version: 6.00 Build 0)  -->
<svg version="1.1" id="Слой_1" xmlns="http://www.w3.org/2000/svg" xmlns:xlink="http://www.w3.org/1999/xlink" x="0px" y="0px"
	 viewBox="0 0 367.9 480" style="enable-background:new 0 0 367.9 480;" xml:space="preserve">
<style type="text/css">
	.st0{fill:none;stroke:#000000;stroke-width:13;stroke-miterlimit:10;}
</style>
<path d="M212.8,356.8l-28.3,28.2l-17-17c-3.1-3.1-8.2-3.1-11.3,0c-1.5,1.5-2.4,3.5-2.4,5.7s0.9,4.2,2.4,5.7l17,17
	c3,3,7.1,4.6,11.3,4.6c4.2,0,8.3-1.6,11.4-4.6l28.2-28.3c2.7-3.2,2.5-7.9-0.4-10.9C220.7,354.3,216,354.1,212.8,356.8z"/>
<path d="M288,64.1c4.4,0,8-3.6,8-8c0-4.4-3.6-8-8-8H80c-4.4,0-8,3.6-8,8v32c0,4.4,3.6,8,8,8h208c4.4,0,8-3.6,8-8c0-4.4-3.6-8-8-8H88
	v-16H288z"/>
<path d="M104,112.1c-4.4,0-8,3.6-8,8c0,4.4,3.6,8,8,8h160c4.4,0,8-3.6,8-8c0-4.4-3.6-8-8-8H104z"/>
<path d="M311.9,168.1H136c-4.4,0-8,3.6-8,8c0,4.4,3.6,8,8,8h176c4.4,0,8-3.6,8-8C319.9,171.6,316.4,168.1,311.9,168.1z"/>
<path d="M232,224c0-4.4-3.6-8-8-8H64c-4.4,0-8,3.6-8,8c0,4.4,3.6,8,8,8h160C228.4,232,232,228.5,232,224z"/>
<path d="M311.9,216h-56c-4.4,0-8,3.6-8,8c0,4.4,3.6,8,8,8h56c4.4,0,8-3.6,8-8C319.9,219.6,316.4,216,311.9,216z"/>
<path d="M144,272c4.4,0,8-3.6,8-8c0-4.4-3.6-8-8-8H64c-4.4,0-8,3.6-8,8c0,4.4,3.6,8,8,8H144z"/>
<path d="M176,272h56c4.4,0,8-3.6,8-8c0-4.4-3.6-8-8-8h-56c-4.4,0-8,3.6-8,8C168,268.5,171.6,272,176,272z"/>
<path d="M359.9,368c-4.4,0-8,3.6-8,8v80c0,4.4-3.6,8-8,8H24c-4.4,0-8-3.6-8-8V24.1c0-4.4,3.6-8,8-8h319.9c4.4,0,8,3.6,8,8v380.2
	c0,4.4,3.6,8,8,8c4.4,0,8-3.6,8-8V24.1c0-13.3-10.7-24-24-24H24c-13.3,0-24,10.7-24,24V456c0,13.3,10.7,24,24,24h319.9
	c13.3,0,24-10.7,24-24v-80C367.9,371.6,364.4,368,359.9,368z"/>
<circle class="st0" cx="190" cy="378" r="60"/>
</svg>
