<?xml version="1.0" encoding="utf-8"?>
<!-- Generator: Adobe Illustrator 21.0.0, SVG Export Plug-In . SVG Version: 6.00 Build 0)  -->
<svg version="1.1" id="Layer_1" xmlns="http://www.w3.org/2000/svg" xmlns:xlink="http://www.w3.org/1999/xlink" x="0px" y="0px"
	 viewBox="0 0 489.9 489.9" style="enable-background:new 0 0 489.9 489.9;" xml:space="preserve">
<g>
	<g>
		<g>
			<path d="M390.9,70.9c0,0-0.4-0.2-0.4-0.2c0,0-0.1-2-0.1-2v-1.7c0-11.7-9.5-21.1-21.1-21.1h-9.5v-1.8c0-11.7-9.5-21.1-21.1-21.1
				H161.6c-1-12.8-11.7-23-24.8-23C123.7,0,113,10.1,112,23H90c-11.7,0-21.1,9.5-21.1,21.1v363.4c0,11.7,9.5,21.1,21.1,21.1h1.8v9.5
				c0,11.7,9.5,21.1,21.1,21.1h1.8v9.5c0,11.7,9.5,21.1,21.1,21.1h263.9c11.7,0,21.1-9.5,21.1-21.1V87.6c0,0-3-16.4-18.3-16.4
				C393.4,71.2,390.9,70.9,390.9,70.9 M136.8,15.3c4.6,0,8.5,3.3,9.4,7.7h-18.7C128.3,18.6,132.2,15.3,136.8,15.3z M84.2,399.9V51.8
				c0-7.4,6-13.5,13.5-13.5h14.2l0,54.9c0,13.9,11.4,25.7,25.3,25.4c13.5-0.2,24.4-11.3,24.4-24.9V59.6c0-4.2-3.2-7.8-7.4-8
				c-4.3-0.1-7.9,3.3-7.9,7.7v34.1c0,5.1-3.8,9.5-8.9,9.9c-5.6,0.4-10.2-4-10.2-9.5V38.3H331c7.4,0,13.5,6,13.5,13.5v348.1
				c0,7.4-6,13.5-13.5,13.5H97.7C90.2,413.4,84.2,407.4,84.2,399.9z M120.7,444c-7.4,0-13.5-6-13.5-13.5v-1.8h0h231.5
				c11.7,0,21.1-9.5,21.1-21.1V61.2h1.8c7.4,0,13.5,6,13.5,13.5v355.8c0,7.4-6,13.5-13.5,13.5H120.7z M130.1,461.1v-1.8h239.1
				c11.7,0,21.1-9.5,21.1-21.1V84.1c0,0,0.1,0,0.1,0l1.8,0c7.4,0,13.4,6.1,13.4,13.5v363.6c0,7.4-6,13.5-13.5,13.5H143.6
				C136.2,474.6,130.1,468.6,130.1,461.1z"/>
			<path d="M267.9,168.4H160.8c-4.2,0-7.7,3.4-7.7,7.7c0,4.2,3.4,7.7,7.7,7.7h107.2c4.2,0,7.7-3.4,7.7-7.7
				C275.6,171.8,272.2,168.4,267.9,168.4z"/>
			<path d="M267.9,199H160.8c-4.2,0-7.7,3.4-7.7,7.7c0,4.2,3.4,7.7,7.7,7.7h107.2c4.2,0,7.7-3.4,7.7-7.7
				C275.6,202.5,272.2,199,267.9,199z"/>
			<path d="M237.3,229.7h-45.9c-4.2,0-7.7,3.4-7.7,7.7c0,4.2,3.4,7.7,7.7,7.7h45.9c4.2,0,7.7-3.4,7.7-7.7S241.5,229.7,237.3,229.7z"
				/>
		</g>
	</g>
</g>
</svg>
