<?xml version="1.0" encoding="utf-8"?>
<!-- Generator: Adobe Illustrator 21.0.0, SVG Export Plug-In . SVG Version: 6.00 Build 0)  -->
<svg version="1.1" id="Layer_1" xmlns="http://www.w3.org/2000/svg" xmlns:xlink="http://www.w3.org/1999/xlink" x="0px" y="0px"
	 width="200.7px" height="184px" viewBox="0 0 200.7 184" style="enable-background:new 0 0 200.7 184;" xml:space="preserve">
<style type="text/css">
	.st0{fill:#010101;stroke:#010101;stroke-miterlimit:10;}
	.st1{fill:#010101;}
</style>
<path class="st0" d="M150.5,6.7c-3.6-3.6-8.3-5.5-13.4-5.5c-5,0-9.8,2-13.4,5.5L96.9,33.6C76,54.6,56.5,77.3,39.1,101.3l-25.9,25.9
	c-1.4-1-3.1-1.6-4.8-1.6c-2.2,0-4.3,0.9-5.9,2.4C0.9,129.7,0,131.8,0,134c0,2.2,0.9,4.3,2.4,5.9l0.8,0.8c0.9,0.9,2.3,0.9,3.2,0
	c0.9-0.9,0.9-2.3,0-3.2l-0.8-0.8c-1.5-1.5-1.5-3.8,0-5.3c0.7-0.7,1.6-1.1,2.6-1.1c1,0,1.9,0.4,2.6,1.1l15,15C26.6,147,27,148,27,149
	s-0.4,1.9-1.1,2.6c-1.5,1.5-3.8,1.5-5.3,0l-8.3-8.3c-0.9-0.9-2.3-0.9-3.2,0c-0.9,0.9-0.9,2.3,0,3.2l8.3,8.3c1.6,1.6,3.7,2.4,5.9,2.4
	c2.2,0,4.3-0.9,5.9-2.4c1.6-1.6,2.4-3.7,2.4-5.9c0-1.8-0.5-3.4-1.6-4.8l12.3-12.3c0,0,0,0,0,0c0,0,0,0,0,0L56,118.2
	c24-17.4,46.7-36.9,67.7-57.8l1.8-1.8c0.9-0.9,0.9-2.3,0-3.2c-0.9-0.9-2.3-0.9-3.2,0l-1.8,1.8C100,77.5,77.9,96.4,54.7,113.4
	l-10.9-10.9c17-23.2,36-45.3,56.3-65.7L127,10c2.7-2.7,6.3-4.2,10.1-4.2c3.8,0,7.4,1.5,10.1,4.2c2.7,2.7,4.2,6.3,4.2,10.1
	c0,3.8-1.5,7.4-4.2,10.1l-19.1,19.1c-0.9,0.9-0.9,2.3,0,3.2c0.9,0.9,2.3,0.9,3.2,0l19.1-19.1c3.6-3.6,5.5-8.3,5.5-13.4
	C156.1,15.1,154.1,10.3,150.5,6.7z M40.7,127l-10.4-10.4l3.7-3.7l10.4,10.4L40.7,127z M33.8,133.9l-10.4-10.4l3.7-3.7l10.4,10.4
	L33.8,133.9z M16.5,130.4l3.7-3.7l10.4,10.4l-3.7,3.7L16.5,130.4z M51.2,116.4l-3.7,3.7l-10.4-10.4l3.7-3.7L51.2,116.4z"/>
<g id="_x31_2_1_">
	<path class="st0" d="M125.2,146.2c-0.6-1-1.9-1.2-2.9-0.6c-1,0.6-1.2,1.9-0.6,2.9l1.8,2.8c0.4,0.6,1.1,0.9,1.7,0.9
		c0.4,0,0.8-0.1,1.1-0.3c1-0.6,1.2-1.9,0.6-2.9L125.2,146.2z"/>
	<path class="st0" d="M143.8,95c-2.7-1.3-4.6-5.3-4.6-9.6c0-4,1.5-7.6,3.9-9.2c0.8-0.5,1.1-1.4,0.8-2.3c-0.3-0.9-1.1-1.5-2-1.5
		l-14.1,0c-1.5,1.4-3.1,2.7-4.6,4.1l14.1,0c-1.5,2.5-2.3,5.6-2.3,8.9c0,3.5,1,6.9,2.6,9.4l-18.3,0c-0.3-0.9-0.8-1.8-1.5-2.4
		c-0.7-0.7-1.5-1.2-2.4-1.5l0-7.5c-1.4,1.2-2.8,2.4-4.1,3.7v5.5c0,0.5,0.2,1.1,0.6,1.5c0.4,0.4,0.9,0.6,1.5,0.6
		c0.6,0,1.1,0.2,1.5,0.6c0.4,0.4,0.7,1,0.7,1.6c0,0.5,0.2,1.1,0.6,1.5c0.4,0.4,0.9,0.6,1.5,0.6l25.1,0c1,0,1.8-0.7,2-1.6
		C145.2,96.4,144.7,95.4,143.8,95z"/>
	<path class="st0" d="M200,66.4c0-1.1-0.9-2.1-2.1-2.1l-21.8,0c-0.5-0.6-1-1.2-1.5-1.7c-5-5-11.2-7.7-17.8-7.7
		c-6.5,0-12.9,3.3-18.1,9.4h-1.7c-1.5,1.4-3.1,2.7-4.6,4.1l26.5,0c2.8,0.3,5.3,1.6,7.3,3.9l-4.7,0c-0.9,0-1.7,0.6-2,1.4
		c-0.3,0.9,0.1,1.8,0.8,2.3c2.4,1.6,3.9,5.3,3.9,9.2c0,4.4-1.9,8.3-4.6,9.6c-0.9,0.4-1.3,1.4-1.1,2.3c0.2,0.9,1,1.6,2,1.6h11.4
		c-0.2,1.3-0.6,2.6-1,3.9l-63.8,0V90.9c-2,1.8-4,3.6-6,5.4c0.6-0.1,1.3-0.1,1.9,0v4.1c-3.4-0.2-6.5,0.7-9.2,2.4c0,0-0.1,0-0.1,0
		c-1.3,0.8-2.4,1.8-3.3,3c0,0,0,0,0,0c-5.4,6.6-5.3,18,0.9,27.5c3.5,5.3,8.3,9.3,13.7,11.2c2.3,0.8,4.6,1.2,6.8,1.2
		c3.1,0,6-0.8,8.5-2.5c4.3-2.8,6.8-7.6,7.2-13.5c0.3-4.8-0.9-9.9-3.4-14.6h4.7c3.5,7.7,3.9,16.3,1,23c-0.3,0.6-0.2,1.4,0.2,2l4.6,7
		c0.4,0.7,0.6,1.5,0.4,2.2c-0.2,0.8-0.6,1.4-1.3,1.9l-11.3,7.4c-0.7,0.4-1.4,0.6-2.2,0.4c-0.8-0.2-1.4-0.6-1.9-1.3l-4.6-7
		c-0.4-0.6-1-0.9-1.7-0.9c-9,0-18.2-5.5-24-14.3c-4.2-6.4-6.1-13.7-5.4-20.7c0.1-0.8,0.2-1.7,0.4-2.5c-1.6,1.4-3.1,2.8-4.6,4.1
		c-0.3,7.2,1.9,14.7,6.2,21.3c6.3,9.6,16.3,15.7,26.3,16.2l4,6.1c1,1.6,2.6,2.7,4.5,3.1c0.5,0.1,1,0.2,1.5,0.2
		c1.4,0,2.7-0.4,3.9-1.2l0.9-0.6l2.7,4.1c-1.6,2.6-1.5,5.8,0.4,8.2l3.6,5.2c1.2,1.5,2.9,2.5,4.8,2.8c0.3,0,0.6,0.1,0.9,0.1
		c1.6,0,3.1-0.5,4.4-1.5c0.3-0.2,0.5-0.5,0.6-0.7c0.8,0.4,1.7,0.6,2.6,0.6h10.2c2.1,0,4-1.1,5.1-2.8h11.3c4.8,0,8.7-3.9,8.7-8.7
		c0-3.8-2.5-7.1-5.9-8.2v-2.8c3.5-1.2,5.9-4.5,5.9-8.2c0-4.8-3.9-8.7-8.7-8.7h-9.6v-2.3h1.4c4.1,0,7.4-3.3,7.4-7.4v-7.9
		c2.9-2.1,5.5-4.9,7.6-8c0.1,0,0.2,0,0.3,0h18.7c1.1,0,2.1-0.9,2.1-2.1l0-8.2c0-0.1,0-0.1,0-0.2L200,66.4z M165.6,94.8
		c1.7-2.5,2.6-5.9,2.6-9.4c0-3.3-0.8-6.4-2.3-8.9h2.9c2.1,4.3,3.4,10.1,3.5,17.1c0,0.4,0,0.8,0,1.2H165.6z M123.4,129.5
		c-0.3,4.6-2.2,8.2-5.3,10.3c-3.1,2.1-7.3,2.3-11.5,0.8c-4.5-1.6-8.6-5-11.6-9.6c-6.1-9.3-5.5-20.4,1.2-24.8c2-1.3,4.4-1.9,7-1.8
		v0.4c0,0,0,0.1,0,0.1l0,8.1c0,0.5,0.2,1.1,0.6,1.5c0.4,0.4,0.9,0.6,1.5,0.6h14.2C122.2,119.7,123.7,124.8,123.4,129.5z M107.1,111
		v-4.1l61.9,0c-0.8,1.4-1.8,2.7-2.9,3.8c-0.1,0.1-0.2,0.2-0.4,0.4c-0.1,0-0.3-0.1-0.4-0.1L107.1,111z M132.4,157l4.3,6.5
		c0.3,0.5,0.4,1,0.3,1.5c-0.1,0.5-0.4,1-0.9,1.3c-0.9,0.6-2.3,0.3-2.9-0.6l-4.3-6.5L132.4,157z M140.1,176.8
		c-0.1,0.1-0.2,0.1-0.3,0.2c-0.7,0.5-1.5,0.7-2.3,0.6c-0.8-0.1-1.6-0.5-2-1.1l-3.6-5.1c-0.4-0.5-0.6-1.2-0.7-1.8
		c1.1,0.8,2.4,1.3,3.8,1.3c1.2,0,2.4-0.4,3.4-1c0.4-0.2,0.7-0.5,1-0.8l1.1,1.5c-0.6,1-1,2.1-1,3.3C139.4,175,139.6,176,140.1,176.8z
		 M141.5,165.1c-0.1-0.2-0.2-0.3-0.4-0.4c0-1.2-0.3-2.4-1-3.4l-4.3-6.5l0.1,0c1.6-1,2.7-2.6,3-4.5c0.4-1.9,0-3.7-1-5.3l-4-6.1
		c2.7-7.1,2.4-15.7-0.7-23.6h1.3c2.1,3.2,4.7,5.9,7.6,8v7.9c0,4.1,3.3,7.4,7.4,7.4h0.6v2.7c-3.6,1.1-6.1,4.4-6.1,8.3
		c0,4.8,3.9,8.7,8.7,8.7h9.8v1.9h-5.7c-4.5,0-8.2,3.4-8.6,7.7h-2.6c-0.7,0-1.3,0.1-1.9,0.3L141.5,165.1z M155.7,176h-10.2
		c-1.1,0-2.1-0.9-2.1-2.1c0-1.1,0.9-2.1,2.1-2.1h10.2c1.1,0,2.1,0.9,2.1,2.1C157.8,175.1,156.8,176,155.7,176z M176.7,168.7
		c0,2.5-2,4.6-4.6,4.6h-10.3c-0.3-3.1-2.9-5.5-6.1-5.5h-3.3c0.4-2.1,2.3-3.6,4.5-3.6h5.9c0.7,2.6,3.1,4.6,5.9,4.6
		c2.6,0,4.8-1.6,5.7-3.9C175.8,165.6,176.7,167.1,176.7,168.7z M166.6,162.5v-10.1c0-1.1,0.9-2.1,2.1-2.1c1.1,0,2.1,0.9,2.1,2.1
		v10.1c0,1.1-0.9,2.1-2.1,2.1C167.5,164.6,166.6,163.7,166.6,162.5z M172.1,144.9c2.5,0,4.6,2,4.6,4.6c0,1.5-0.7,2.8-1.8,3.6v-0.7
		c0-3.4-2.8-6.2-6.2-6.2s-6.2,2.8-6.2,6.2v1.6h-9.8c-2.5,0-4.6-2.1-4.6-4.6c0-1.5,0.8-2.9,2-3.7v0.3c0,3.4,2.8,6.2,6.2,6.2
		c3.4,0,6.2-2.8,6.2-6.2v-1.1H172.1z M154.2,146v-7.5h4.1v7.5c0,1.1-0.9,2.1-2.1,2.1C155.2,148.1,154.2,147.2,154.2,146z
		 M168.1,120.4c-0.6,0.4-0.9,1-0.9,1.7v9c0,1.8-1.5,3.3-3.3,3.3h-14.4c-1.8,0-3.3-1.5-3.3-3.3v-9c0-0.7-0.3-1.3-0.9-1.7
		c-2.1-1.4-4-3.1-5.7-5.2h6.7c0.1,0.2,0.3,0.4,0.5,0.6c3,2.2,6.4,3.4,9.8,3.4c4.5,0,8.9-2,12.3-5.5c4.9-4.9,7.6-12.3,7.4-20.2
		c-0.3-16.1-6.4-26.9-15.7-28.9c-0.3-0.2-0.6-0.3-1-0.3h-0.9c-0.4,0-0.8-0.1-1.2-0.1c-0.2,0-0.4,0-0.5,0.1l-12.8,0
		c3.8-3.4,8.1-5.3,12.3-5.3c5.5,0,10.7,2.2,14.9,6.5c6.3,6.4,9.7,16.3,9.6,28C181.1,104.9,176.1,115.2,168.1,120.4z M195.9,111.1
		h-14.6c0.6-1.3,1.2-2.7,1.7-4.1l12.9,0L195.9,111.1z M182.8,76.5h1.1c0.3,0.9,0.8,1.7,1.5,2.4c0.7,0.7,1.5,1.2,2.4,1.5v10.4
		c-0.9,0.3-1.7,0.8-2.4,1.5c0,0,0,0.1-0.1,0.1C185.3,86.7,184.4,81.3,182.8,76.5z M195.9,102.8l-11.7,0c0.3-1.3,0.5-2.6,0.7-3.9h0.7
		c0.5,0,1.1-0.2,1.5-0.6c0.4-0.4,0.6-0.9,0.6-1.5c0-0.6,0.2-1.2,0.6-1.6c0.4-0.4,1-0.6,1.5-0.6c0.5,0,1.1-0.2,1.5-0.6
		c0.4-0.4,0.6-0.9,0.6-1.5V78.7c0-0.5-0.2-1.1-0.6-1.5c-0.4-0.4-0.9-0.6-1.5-0.6c-0.6,0-1.1-0.2-1.5-0.7c-0.4-0.4-0.6-1-0.6-1.6
		c0-0.5-0.2-1.1-0.6-1.5c-0.4-0.4-0.9-0.6-1.5-0.6h-4.4c-0.6-1.4-1.3-2.7-2.1-3.9l16.8,0L195.9,102.8z"/>
	<path class="st0" d="M151.8,75.4c-4.5,0-8.2,4.6-8.2,10.3c0,5.7,3.7,10.3,8.2,10.3c4.6,0,8.3-4.6,8.3-10.3
		C160.1,80,156.4,75.4,151.8,75.4z M151.8,91.8c-2.2,0-4.1-2.8-4.1-6.1c0-3.3,1.9-6.1,4.1-6.1c2.2,0,4.1,2.8,4.1,6.1
		C156,89,154.1,91.8,151.8,91.8z"/>
	<path class="st0" d="M156.6,123.2c-1.1,0-2.1,0.9-2.1,2.1v3.7c0,1.1,0.9,2.1,2.1,2.1c1.1,0,2.1-0.9,2.1-2.1v-3.7
		C158.6,124.2,157.7,123.2,156.6,123.2z"/>
</g>
<path class="st1" d="M93.9,102.7c-1.1,1-2.2,2-3.4,3C91.4,104.6,92.5,103.6,93.9,102.7C93.8,102.7,93.8,102.7,93.9,102.7z"/>
<g>
</g>
<g>
</g>
<g>
</g>
<g>
</g>
<g>
</g>
<g>
</g>
</svg>
