<?xml version="1.0" encoding="utf-8"?>
<!-- Generator: Adobe Illustrator 21.0.0, SVG Export Plug-In . SVG Version: 6.00 Build 0)  -->
<svg version="1.1" id="Layer_1" xmlns="http://www.w3.org/2000/svg" xmlns:xlink="http://www.w3.org/1999/xlink" x="0px" y="0px"
	 width="179.9px" height="180.7px" viewBox="0 0 179.9 180.7" style="enable-background:new 0 0 179.9 180.7;" xml:space="preserve"
	>
<style type="text/css">
	.st0{fill:#010101;}
</style>
<path class="st0" d="M142.1,151.3c-4.8,0-8.7,3.9-8.7,8.7c0,4.8,3.9,8.7,8.7,8.7c4.8,0,8.7-3.9,8.7-8.7
	C150.8,155.3,146.9,151.3,142.1,151.3z M142.1,163c-1.6,0-2.9-1.3-2.9-2.9c0-1.6,1.3-2.9,2.9-2.9c1.6,0,2.9,1.3,2.9,2.9
	C145,161.7,143.7,163,142.1,163z"/>
<path class="st0" d="M60.8,151.3c-4.8,0-8.7,3.9-8.7,8.7c0,4.8,3.9,8.7,8.7,8.7c4.8,0,8.7-3.9,8.7-8.7
	C69.5,155.3,65.6,151.3,60.8,151.3z M60.8,163c-1.6,0-2.9-1.3-2.9-2.9c0-1.6,1.3-2.9,2.9-2.9c1.6,0,2.9,1.3,2.9,2.9
	C63.7,161.7,62.4,163,60.8,163z"/>
<path class="st0" d="M170,131.4l-23.9-8c-1.5-0.5-2.8-1.4-3.9-2.6L130.4,107c-2.8-3.2-6.8-5.1-11-5.1H94.5c0.3-2.2,0.3-4.3-0.1-6.5
	l34-34c1.2,0.2,2.4,0.3,3.6,0.3c5.2,0,10.4-2,14.4-5.9c3.8-3.8,6-9,6-14.4c0-1.2-0.1-2.4-0.3-3.6l4.6-4.6c5.7-5.7,5.7-14.9,0-20.5
	l-8.5-8.5c-4.4-4.4-11.2-5.5-16.8-2.7l-22.5,11.3c-1.4,0.7-3,1-4.6,0.9l-18.2-1.4c-4.3-0.3-8.4,1.2-11.4,4.2L44.9,46.3
	c-2.7,2.7-4.3,6.4-4.3,10.3v24.1c0,1.9-0.7,3.8-1.8,5.3l-5.1,6.6l-6.9-7.7l-5.2,13L7.6,95.8l4.5,13.3l-12.2,7.3l12.2,7.3l-4.5,13.3
	l14.1-2.1l1.7,4.4l-0.3,0c-0.1,0.6-0.1,1.3-0.1,1.9v15.9c0,8,6.5,14.5,14.5,14.5h6.6c3.7,5.3,9.8,8.7,16.7,8.7
	c6.9,0,13-3.5,16.7-8.7h48c3.7,5.3,9.8,8.7,16.7,8.7c6.9,0,13-3.5,16.7-8.7h6.6c8,0,14.5-6.5,14.5-14.5v-12
	C179.9,138.9,175.9,133.4,170,131.4z M126,110.8l11.9,13.8c1.7,2,3.9,3.5,6.4,4.3l23.9,8c3.6,1.2,6,4.5,6,8.3v9.1h-12.5
	c-2.5-8.4-10.3-14.5-19.5-14.5c-9.2,0-17,6.1-19.5,14.5H80.2c-2.5-8.4-10.3-14.5-19.5-14.5c-4.5,0-8.6,1.5-12,3.9l0.3-13.4l14-2.8
	l-4.2-5.1l12-12c1.6-1.6,3.9-2.6,6.2-2.6h42.1C121.9,107.8,124.3,108.9,126,110.8z M41.3,154.2H28.8v-8.3l7.5-8.4l12,6.5
	C45,146.6,42.5,150.1,41.3,154.2z M54.2,116.5l4.1-5c0.5,0.6,1,1.2,1.6,1.8l-4.6,4.6L54.2,116.5z M72.4,97c0.6-0.6,1.3-0.8,2.1-0.8
	c0.7,0,1.5,0.3,2.1,0.8c1.1,1.1,1.1,3,0,4.1c-1.1,1.1-3,1.1-4.1,0C71.2,99.9,71.2,98.1,72.4,97z M82.6,101.9c1.1-3.1,0.4-6.6-2-9.1
	c-3.4-3.4-8.9-3.4-12.3,0c-3.4,3.4-3.4,8.9,0,12.3c-0.4,0.3-0.9,0.7-1.3,1.1l-2.9,2.9c-0.7-0.7-1.3-1.5-1.9-2.4l1-1.3l-1.9-0.4
	c-0.9-1.9-1.4-3.9-1.4-6.1c0-3.9,1.5-7.5,4.3-10.3c5.7-5.7,14.9-5.7,20.5,0c3.5,3.5,4.9,8.5,4,13.2L82.6,101.9L82.6,101.9z
	 M92.3,89.4c-0.9-1.7-2.1-3.3-3.5-4.7l28.8-28.8c1.4,1.4,3,2.6,4.7,3.5L92.3,89.4z M142.2,51.8c-5.7,5.7-14.9,5.7-20.5,0
	c-2.7-2.7-4.3-6.4-4.3-10.3c0-3.9,1.5-7.5,4.3-10.3c2.8-2.8,6.6-4.2,10.3-4.2c3.7,0,7.4,1.4,10.3,4.2c2.7,2.7,4.3,6.4,4.3,10.3
	C146.5,45.4,145,49,142.2,51.8z M152.5,29.2l-2.7,2.7c-0.9-1.7-2.1-3.3-3.5-4.7l7.8-7.8C155.7,22.5,155.2,26.5,152.5,29.2z
	 M46.5,80.7V56.6c0-2.3,0.9-4.5,2.6-6.2l29.8-29.8c1.8-1.8,4.3-2.7,6.8-2.5l18.2,1.4c2.6,0.2,5.3-0.3,7.6-1.5L134,6.7
	c3.4-1.7,7.4-1,10.1,1.6l6.4,6.4l-8.8,8.8c-7.7-4.2-17.5-3-24.1,3.5c-3.8,3.8-6,8.9-6,14.4c0,3.4,0.9,6.7,2.4,9.7l-30,30
	c-7.7-4.2-17.5-3-24.1,3.5c-3.8,3.8-6,9-6,14.4c0,1.6,0.2,3.2,0.6,4.8l-5.5-1.1l-0.3-14l-8,4.3l2.6-3.4C45.4,87,46.5,83.9,46.5,80.7
	z M16.1,130l3-8.7l-7.9-4.8l7.9-4.8l-3-8.7l9.2,1.4l3.4-8.6l6.2,6.9l8.2-4.4l0.2,9.2l9.1,1.8l-5.8,7.2l5.8,7.2l-9.1,1.8l-0.2,9.2
	l-8.2-4.4l-6.2,6.9l-3.4-8.6L16.1,130z M37.5,165.9c-3.8,0-7-2.4-8.2-5.8h11.1c0,2,0.3,4,0.9,5.8H37.5z M60.8,174.6
	c-8,0-14.5-6.5-14.5-14.5c0-8,6.5-14.5,14.5-14.5c8,0,14.5,6.5,14.5,14.5C75.3,168.1,68.8,174.6,60.8,174.6z M80.2,165.9
	c0.6-1.8,0.9-3.8,0.9-5.8h40.7c0,2,0.3,4,0.9,5.8H80.2z M142.1,174.6c-8,0-14.5-6.5-14.5-14.5c0-8,6.5-14.5,14.5-14.5
	c8,0,14.5,6.5,14.5,14.5C156.7,168.1,150.1,174.6,142.1,174.6z M165.4,165.9h-3.8c0.6-1.8,0.9-3.8,0.9-5.8h11.1
	C172.4,163.4,169.2,165.9,165.4,165.9z"/>
<path class="st0" d="M71.1,118.4l-9.2,18.4h70.4l-9.2-18.4c-1.5-3-4.5-4.8-7.8-4.8H78.9C75.6,113.6,72.6,115.4,71.1,118.4z
	 M78.9,119.4h36.4c1.1,0,2.1,0.6,2.6,1.6l5,10H71.3l5-10C76.8,120,77.8,119.4,78.9,119.4z"/>
<path class="st0" d="M138.1,35.3c-3.3-3.3-9-3.3-12.3,0c-3.4,3.4-3.4,8.9,0,12.3c1.7,1.7,3.9,2.5,6.2,2.5s4.5-0.8,6.2-2.5
	C141.5,44.3,141.5,38.7,138.1,35.3z M134,43.5c-1.1,1.1-3,1.1-4.1,0c-1.1-1.1-1.1-3,0-4.1c0.5-0.5,1.3-0.9,2.1-0.9
	c0.8,0,1.5,0.3,2.1,0.9C135.1,40.6,135.1,42.4,134,43.5z"/>
<path class="st0" d="M58.8,81.8L108.6,32L89,25.5c-3.2-1.1-6.6-0.2-8.9,2.1L54.3,53.3c-2.3,2.4-3.2,5.8-2.1,8.9L58.8,81.8z
	 M58.5,57.4l25.7-25.7c0.6-0.6,1.3-0.9,2-0.9c0.3,0,0.6,0.1,0.9,0.2l10.6,3.5L61.3,71l-3.5-10.6C57.4,59.4,57.7,58.2,58.5,57.4z"/>
<g>
</g>
<g>
</g>
<g>
</g>
<g>
</g>
<g>
</g>
<g>
</g>
</svg>
