<?xml version="1.0" encoding="utf-8"?>
<!-- Generator: Adobe Illustrator 21.0.0, SVG Export Plug-In . SVG Version: 6.00 Build 0)  -->
<svg version="1.1" id="Layer_1" xmlns="http://www.w3.org/2000/svg" xmlns:xlink="http://www.w3.org/1999/xlink" x="0px" y="0px"
	 width="208px" height="180.7px" viewBox="0 0 208 180.7" style="enable-background:new 0 0 208 180.7;" xml:space="preserve">
<style type="text/css">
	.st0{fill:#010101;}
</style>
<g>
	<path class="st0" d="M104.9,169.1c-2.3,0-4.7-0.7-6.7-2.1c-5.3-3.7-6.7-11.1-2.9-16.4l3.5-5c1.1-1.5,3.2-1.9,4.7-0.8l13.8,9.7
		c1.5,1.1,1.9,3.2,0.8,4.7l-3.5,5C112.3,167.3,108.6,169.1,104.9,169.1z M102.3,152.2l-1.5,2.2c-0.8,1.1-1.1,2.4-0.8,3.8
		c0.2,1.3,1,2.5,2.1,3.3c2.3,1.6,5.4,1,7-1.3l1.5-2.2L102.3,152.2z"/>
	<path class="st0" d="M138.8,144.2c-0.2,0-0.4,0-0.6-0.1c-6.8-1.3-13-3.9-18.6-7.8C109.1,129,102,118,99.8,105.4
		c-2.2-12.6,0.6-25.3,7.9-35.8c7.3-10.5,18.3-17.5,30.9-19.8c12.6-2.2,25.3,0.6,35.8,7.9c21.7,15.1,27,45.1,11.9,66.7
		c-6.8,9.8-17,16.6-28.7,19.2c-1.3,0.3-2.6-0.2-3.4-1.2c-0.6-0.7-1.1-1.3-1.7-1.7c-3.5-2.5-8.5-1.6-10.9,1.9
		C140.9,143.6,139.9,144.2,138.8,144.2z M147.1,55.8c-2.4,0-4.9,0.2-7.3,0.6c-10.8,1.9-20.3,7.9-26.5,17c-6.3,9-8.7,19.9-6.8,30.8
		c1.9,10.8,8,20.3,17,26.6c4.3,3,9,5.1,14.1,6.3c4.9-5,12.9-6,18.9-1.8c0.6,0.4,1.1,0.9,1.7,1.4c9.2-2.6,17.2-8.2,22.7-16
		c13-18.6,8.4-44.3-10.2-57.3C163.6,58.4,155.4,55.8,147.1,55.8z"/>
	<path class="st0" d="M148,161.9c-2.9,0-5.8-0.9-8.4-2.6c-6.6-4.6-8.2-13.8-3.6-20.4c4.6-6.6,13.8-8.2,20.4-3.6
		c3.2,2.2,5.3,5.6,6,9.4c0.7,3.9-0.2,7.7-2.4,10.9C157.2,159.7,152.6,161.9,148,161.9z M148,139.4c-2.5,0-4.9,1.2-6.5,3.4
		c-2.5,3.6-1.6,8.5,2,11c3.6,2.5,8.5,1.6,11-2c1.2-1.7,1.7-3.8,1.3-5.9c-0.4-2.1-1.5-3.9-3.2-5.1C151.1,139.8,149.6,139.4,148,139.4
		z"/>
	<path class="st0" d="M121.5,164.8c-0.7,0-1.4-0.2-1.9-0.6L93.4,146c-0.7-0.5-1.2-1.3-1.4-2.2c-0.2-0.9,0-1.8,0.6-2.5l2.6-3.8
		c1.7-2.4,1.8-5.5,0.3-7.8c-13.3-21.1-12.6-47.8,1.9-68.1C116,35.4,152,28.3,179.2,45.2c0.9,0.6,1.9,1.2,2.8,1.8
		c1.5,1.1,1.9,3.2,0.8,4.7l-2.8,4.1c8.6,0.1,16.9,4.8,21.1,12.8c10.7,20.3,9.1,44.6-4,63.3c-9.3,13.3-23.2,22.2-39.2,25
		c-1.4,0.2-2.7-0.3-3.4-1.5c-0.7-1.1-0.7-2.6,0.1-3.8c1.4-2,1.8-4.5,1.1-6.8c-0.7-2.3-2.4-4.2-4.8-5.1c-2.6-1-5.8-0.5-7.9,1.4
		c-3.6,3.2-3.3,7.9-1.1,10.8c0.8,1.1,0.9,2.6,0.2,3.8c-0.7,1.2-2,1.8-3.4,1.6c-1.4-0.2-2.9-0.4-4.3-0.8c-2.9-0.6-5.8,0.5-7.4,2.9
		l-2.6,3.8c-0.5,0.7-1.3,1.2-2.2,1.4C121.9,164.8,121.7,164.8,121.5,164.8z M100,142.4l20.6,14.4l0.7-1c2.8-4,7.5-6.2,12.3-6
		c-0.9-4.9,0.8-10,4.8-13.6c4-3.6,9.9-4.6,14.9-2.6c4.3,1.7,7.4,5.1,8.7,9.4c0.6,2,0.8,4,0.5,5.9c11.7-3.5,21.9-10.7,28.9-20.9
		c11.7-16.7,13-38.3,3.5-56.3c-4-7.7-13.2-11.2-21.3-8.1c-1.4,0.5-3,0.1-3.9-1.1c-0.9-1.2-1-2.8-0.1-4l5.5-7.9
		c-23.7-14.5-56.1-7.9-72.3,14.8c-12.9,18-13.6,41.8-1.7,60.6c3,4.7,2.8,10.7-0.5,15.3L100,142.4z"/>
	<path class="st0" d="M23.9,136.9c-2.1,0-4.1-0.6-6-1.6c-2.7-1.6-4.7-4.2-5.5-7.2c-0.8-3.1-0.4-6.2,1.2-9l3.1-5.2
		c0.5-0.8,1.2-1.3,2.1-1.6c0.9-0.2,1.8-0.1,2.6,0.4l14.5,8.5c1.6,0.9,2.2,3,1.2,4.6l-3.1,5.2c-1.6,2.7-4.2,4.7-7.2,5.5
		C25.9,136.7,24.9,136.9,23.9,136.9z M20.9,120.2l-1.4,2.3c-0.7,1.2-0.9,2.5-0.5,3.8c0.3,1.3,1.2,2.4,2.3,3.1
		c1.2,0.7,2.5,0.9,3.8,0.5c1.3-0.3,2.4-1.2,3.1-2.3l1.4-2.3L20.9,120.2z"/>
	<path class="st0" d="M56.4,109.3c-0.1,0-0.2,0-0.4,0c-6.8-0.7-13.3-2.8-19.2-6.3c-11-6.5-18.9-16.9-22.1-29.3
		c-3.2-12.4-1.4-25.3,5-36.3C33.1,14.6,62.5,6.9,85.3,20.3c8.2,4.8,14.7,11.8,18.8,20.3c0.8,1.7,0.1,3.7-1.6,4.5
		c-1.7,0.8-3.7,0.1-4.5-1.6c-3.6-7.3-9.1-13.3-16.2-17.4C62.3,14.6,37,21.2,25.6,40.8C20,50.3,18.5,61.4,21.2,72
		c2.8,10.6,9.5,19.6,19,25.1c4.5,2.6,9.4,4.4,14.5,5.1c4.5-5.4,12.4-7,18.7-3.3c1.2,0.7,2.3,1.6,3.4,2.8c1.3,1.4,1.1,3.5-0.2,4.8
		c-1.4,1.3-3.5,1.2-4.8-0.2c-0.6-0.7-1.2-1.2-1.8-1.5c-3.7-2.2-8.6-0.9-10.8,2.8C58.7,108.7,57.6,109.3,56.4,109.3z"/>
	<path class="st0" d="M66,126.3c-2.5,0-5.1-0.6-7.4-2c-7-4.1-9.3-13.1-5.2-20c4.1-7,13.1-9.3,20-5.2c7,4.1,9.3,13.1,5.2,20
		C76,123.7,71.1,126.3,66,126.3z M66.1,103.7c-0.7,0-1.3,0.1-2,0.3c-2,0.5-3.7,1.8-4.8,3.6c-2.2,3.7-0.9,8.6,2.8,10.8
		c1.8,1.1,3.9,1.4,6,0.8c2-0.5,3.7-1.8,4.8-3.6c2.2-3.7,0.9-8.6-2.8-10.8C68.8,104.1,67.4,103.7,66.1,103.7z"/>
	<path class="st0" d="M40.7,131.2c-0.6,0-1.2-0.1-1.7-0.5l-27.5-16.1c-0.8-0.5-1.3-1.2-1.6-2.1c-0.2-0.9-0.1-1.8,0.4-2.6l2.3-4
		c1.5-2.5,1.3-5.6-0.3-7.8c-15-20-16.3-46.7-3.5-68.1C25.4,2.7,60.6-7.3,89,7.4c1,0.5,2,1,2.9,1.6c1.6,0.9,2.1,3,1.2,4.6l-2.5,4.3
		c8.6-0.6,17.2,3.4,22,11.1c0.6,1,1.3,2,1.8,3.1c0.9,1.6,0.3,3.7-1.3,4.6c-1.6,0.9-3.7,0.3-4.6-1.3c-0.5-0.9-1.1-1.8-1.6-2.7
		c-4.6-7.4-14-10.1-21.9-6.4c-1.3,0.6-2.9,0.3-3.9-0.8c-1-1.1-1.2-2.7-0.4-4l4.9-8.3C60.7,0.6,29,9.7,14.6,33.6
		c-11.4,19-10.2,42.8,3.1,60.5c3.3,4.4,3.6,10.4,0.8,15.3l-0.6,1.1l21.7,12.7l0.6-1.1c2.5-4.2,6.9-6.8,11.8-6.9
		c-1.3-4.8,0-10.1,3.7-13.9c3.7-3.9,9.5-5.3,14.6-3.8c4.4,1.4,7.8,4.5,9.5,8.7c1.6,4.2,1.3,8.8-1,12.7c-0.9,1.6-3,2.2-4.6,1.2
		c-1.6-0.9-2.2-3-1.2-4.6c1.2-2.1,1.4-4.6,0.5-6.8c-0.9-2.3-2.7-4-5.2-4.7c-2.7-0.8-5.8,0-7.7,2c-3.4,3.5-2.6,8.2-0.3,10.8
		c0.9,1,1.1,2.5,0.5,3.7c-0.6,1.2-1.9,2-3.2,1.9c-1.5-0.1-2.9-0.2-4.4-0.4c-2.9-0.4-5.7,1-7.2,3.5l-2.3,4
		C43,130.6,41.9,131.2,40.7,131.2z"/>
	<path class="st0" d="M86.2,181.2H32.7c-9.1,0-16.5-7.4-16.5-16.5v-32.4c0-1.9,1.5-3.4,3.4-3.4c1.9,0,3.4,1.5,3.4,3.4v32.4
		c0,5.4,4.4,9.7,9.7,9.7h53.5c5.3,0,9.6-4.3,9.7-9.5l0-1.3c0-1.8,1.5-3.3,3.4-3.3c1.9,0,3.4,1.6,3.4,3.4l0,1.3
		C102.5,173.9,95.1,181.2,86.2,181.2z"/>
</g>
<g>
</g>
<g>
</g>
<g>
</g>
<g>
</g>
<g>
</g>
<g>
</g>
</svg>
