<?xml version="1.0" encoding="utf-8"?>
<!-- Generator: Adobe Illustrator 21.0.0, SVG Export Plug-In . SVG Version: 6.00 Build 0)  -->
<svg version="1.1" id="Layer_1" xmlns="http://www.w3.org/2000/svg" xmlns:xlink="http://www.w3.org/1999/xlink" x="0px" y="0px"
	 width="192px" height="191.1px" viewBox="0 0 192 191.1" style="enable-background:new 0 0 192 191.1;" xml:space="preserve">
<style type="text/css">
	.st0{fill:#010101;}
</style>
<g>
	<g>
		<path class="st0" d="M149.8,147.3v-8.6c3,0.2,4.1,1.6,5.1,1.6c1.3,0,1.9-1.6,1.9-2.4c0-2.1-4.1-3-7-3.1v-1.1c0-0.5-0.6-1-1.3-1
			c-0.7,0-1.2,0.5-1.2,1v1.2c-4,0.4-8.1,2.5-8.1,7.9c0,5.4,4.2,7,8.1,8.3v10c-4.3-0.3-5.5-3.3-6.9-3.3c-1.1,0-2,1.4-2,2.4
			c0,2.1,3.6,4.9,8.8,5v1.3c0,0.5,0.5,1,1.2,1c0.6,0,1.3-0.5,1.3-1V165c4.6-0.6,7.7-3.5,7.7-8.8
			C157.6,150.5,153.5,148.6,149.8,147.3z M147.6,146.4c-2.3-0.8-4.1-1.7-4.1-4.2c0-2.2,1.7-3.3,4.1-3.6V146.4z M149.6,160.9v-9
			c2.1,0.9,3.7,2.1,3.7,4.8C153.3,159.2,151.9,160.5,149.6,160.9z"/>
	</g>
</g>
<g>
	<g>
		<path class="st0" d="M185.2,132.3c-4.5-7.7-11.8-15.6-22.7-24.6c0.1-0.2,0.2-0.3,0.3-0.5c1-1.7,1.2-3.8,0.7-5.7
			c-0.8-2.6-2.9-4.4-5.3-5c1.1-3.1,2.8-6,4.2-7.9c1.3-1.6,1.5-3.8,0.6-5.7c-0.9-1.9-2.8-3-4.9-3l-22.9,0.5c-2.1,0.1-3.9,1.3-4.8,3.2
			c-0.8,1.9-0.5,4.1,0.8,5.7c1.5,1.8,3.4,4.6,4.6,7.7c-2.4,0.7-4.4,2.7-5.1,5.3c-0.5,1.9-0.1,4,1,5.7c0.1,0.2,0.2,0.3,0.4,0.5
			c-1.1,1-2.2,2-3.2,3c-0.4-2.5-1.3-4.8-2.7-6.7c-3.3-4.3-10.9-7.5-17.5-10.3c-1.2-0.5-2.4-1-3.4-1.5c5.8-5.6,9.2-13.1,9.5-21.2
			c4.8-0.7,8.6-4.8,8.6-9.8v-5.5c0-3.6-1.9-6.8-4.8-8.5c2.4-1.3,4.1-3.9,4.1-6.8c0-3.7-2.6-6.8-6-7.6c-0.9-2.9-2.3-6-3.9-9
			c-0.7-1.3-2.4-1.8-3.8-1.1c-1.3,0.7-1.8,2.4-1.1,3.8c1.1,2,2.1,4.1,2.8,6.1h-69C46,21.7,57.9,6.1,76,5.6
			c11.3,0.3,19.5,6.5,24.4,11.7c1.1,1.1,2.8,1.2,3.9,0.1c1.1-1.1,1.2-2.8,0.1-3.9C96.4,4.9,86.6,0.3,76.1,0c-0.1,0-0.1,0-0.2,0
			c0,0,0,0,0,0C65.5,0.3,55.9,4.8,48,13c-5.6,5.8-10.1,13.4-12.4,20.6c-3.4,0.8-5.9,3.9-5.9,7.5c0,2.9,1.6,5.5,4.1,6.8
			c-2.9,1.7-4.8,4.9-4.8,8.5v5.5c0,5,3.7,9.2,8.6,9.8c0,0.8,0,1.5,0,1.9c0,7.5,3.4,14.6,9.3,19.3l0.1,0.1c-1.1,0.5-2.2,0.9-3.3,1.4
			c-6.7,2.8-14.3,6-17.5,10.3c-3.2,4.2-3.8,10.4-1.5,15.4c-0.1,0-0.2,0-0.3,0.1c-7,2.1-13.1,6.3-17.5,12.2
			C2.3,138.3,0,145.3,0,152.6v1.8c0,1.5,1.2,2.8,2.8,2.8s2.8-1.2,2.8-2.8v-1.8c0-6.1,1.9-12,5.6-16.9c3.6-4.9,8.6-8.4,14.5-10.1
			l3-0.6c2.2,1.6,5.1,3.3,9,5.1c12.2,5.5,25.2,8.3,38.3,8.3c12.4,0,24.7-2.5,36.4-7.4c-0.6,1.1-1.2,2.1-1.8,3.1
			c-4.1,7.8-5.8,15.8-5.6,25.9c0.2,8.4,3.8,16.1,10.1,21.9c1.2,1.1,2.4,2,3.6,2.9H27.2v-23.7c0-1.5-1.2-2.8-2.8-2.8
			c-1.5,0-2.8,1.2-2.8,2.8v23.7H6.9c-0.7,0-1.3-0.6-1.3-1.3v-16c0-1.5-1.2-2.8-2.8-2.8S0,165.9,0,167.4v16c0,3.8,3.1,6.9,6.9,6.9
			h128.5c0.6,0,1.1,0,1.7,0c0.3,0,0.5,0,0.8,0l22.9-0.5c8.4-0.2,16.3-3.6,22.3-9.6c6-6.1,9.2-14,9-22.3
			C191.8,147.8,189.6,140,185.2,132.3z M158.2,103.1c0.1,0.5,0.1,0.9-0.2,1.4c-0.1,0.2-0.4,0.5-0.8,0.7c0,0,0,0,0,0c0,0,0,0-0.1,0
			c0,0-0.1,0-0.1,0c0,0,0,0,0,0c0,0,0,0,0,0c-6.5,1.6-12.9,1.7-19.5,0.5c0,0,0,0,0,0c0,0-0.1,0-0.1,0c0,0,0,0-0.1,0c0,0,0,0,0,0
			c-0.5-0.2-0.7-0.5-0.9-0.7c-0.3-0.4-0.3-0.9-0.2-1.3c0.2-0.8,0.9-1.3,1.7-1.3c0.1,0,0.2,0,0.3,0c0.3,0.1,0.7,0.1,1,0.2
			c0,0,0,0,0,0c5.4,0.9,10.6,0.7,16-0.4c0,0,0.1,0,0.1,0c0.3-0.1,0.6-0.1,0.9-0.2C157,101.7,157.9,102.2,158.2,103.1z M135.7,86
			l22.1-0.5c-2,2.6-4.4,6.9-5.6,11.5c-3.5,0.6-6.9,0.6-10.4,0.2C140.5,92.7,137.8,88.5,135.7,86z M117.6,61.9L117.6,61.9
			c0,1.9-1.3,3.6-3,4.1c0-3,0-7.1,0-11c0,0,0,0,0-0.1c0,0,0,0,0-0.1c0-0.9,0-1.8,0-2.6c1.7,0.6,3,2.2,3,4.1V61.9z M34.4,61.9v-5.5
			c0-1.9,1.2-3.5,3-4.1c0,0.8,0,1.7,0,2.6c0,0,0,0,0,0.1c0,0,0,0,0,0.1c0,3.7,0,7.7,0,11C35.7,65.5,34.4,63.9,34.4,61.9z M37.4,43.3
			c-1.2,0-2.2-1-2.2-2.2c0-1.2,1-2.2,2.2-2.2c0,0,76.9,0,76.9,0c0,0,0,0,0,0h0.4c1.2,0,2.2,1,2.2,2.2s-1,2.2-2.2,2.2H37.4z M43,51.2
			l0-2.4h66.1c0,0.1,0,0.3,0,0.4c0,0.9,0,1.9,0,2.9H43C43,51.9,43,51.6,43,51.2z M99.1,59.4v4.1c0,1.2-1,2.2-2.2,2.2H85.5
			c-1.2,0-2.2-1-2.2-2.2v-4.1L99.1,59.4L99.1,59.4z M68.7,59.4v4.1c0,1.2-1,2.2-2.2,2.2H55.2c-1.2,0-2.2-1-2.2-2.2v-4.1L68.7,59.4
			L68.7,59.4z M43,69.1L43,69.1l0-11.3h4.4v5.8c0,4.3,3.5,7.8,7.8,7.8h11.4c4.3,0,7.8-3.5,7.8-7.8v-5.8h3.4v5.8
			c0,4.3,3.5,7.8,7.8,7.8h11.4c4.3,0,7.8-3.5,7.8-7.8v-5.8h4.4c0,4.4,0,8.7,0,11.1c0,0.8,0,1.4,0,1.7c0,0.1,0,0.1,0,0.2l-15.4,2.3
			c-12.8,2-25.9,1.9-38.7-0.2l-12-2C43,70.4,43,69.8,43,69.1z M43.2,76.6l10.8,1.8C61,79.5,68,80.1,75,80.1c6.5,0,13-0.5,19.5-1.5
			l13.9-2.1c-1.3,5.5-4.4,10.4-8.9,14l-1.2,1c0,0,0,0,0,0l-12.9,10.4c-1.1,0.9-2.6,1.4-4,1.4H70.8c-1.5,0-2.9-0.5-4-1.4L53.8,91.5
			c0,0,0,0,0,0l-3.6-2.9C46.4,85.6,44,81.3,43.2,76.6z M92.7,116.2c0.5,0.8,1.1,1.5,1.8,2.1c-5.3,4-11.7,6.1-18.5,6.1
			c-6.7,0-13.2-2.2-18.5-6.1c0.7-0.6,1.3-1.3,1.8-2.1c1.4-2,2.2-4.6,2.2-6.9v-4.4l1.7,1.3c2.1,1.7,4.8,2.6,7.5,2.6h10.5
			c2.7,0,5.4-0.9,7.5-2.6l1.7-1.3v4.4C90.5,111.6,91.3,114.2,92.7,116.2z M112.1,125c-22.9,10.3-49.1,10.3-72,0
			c-7.9-3.6-9.8-5.9-10.3-6.7c-1.7-3.2-1.4-7.4,0.7-10.1c2.4-3.1,9.5-6.1,15.3-8.5c2.2-0.9,4.2-1.8,6-2.6l4.3,3.5v8.9
			c0,2.5-1.9,5.3-3.9,5.7c-1,0.2-1.8,1-2.1,1.9c-0.3,1,0,2.1,0.7,2.8C57.6,126.4,66.6,130,76,130s18.5-3.6,25.3-10.2
			c0.7-0.7,1-1.8,0.7-2.8c-0.3-1-1.1-1.7-2.1-1.9c-2-0.4-3.9-3.2-3.9-5.7v-8.9l4.3-3.5c1.8,0.9,3.9,1.7,6,2.6
			c5.7,2.4,12.9,5.4,15.3,8.5c2,2.6,2.3,6.6,0.9,9.7c-0.4,0.9-1.2,1.7-2.4,2.7C118.6,121.7,116.2,123.2,112.1,125z M179,176.3
			c-4.9,4.9-11.5,7.8-18.5,7.9l-22.9,0.5c-0.6,0-1.2,0-1.9,0c-0.1,0-0.2,0-0.2,0h0c-6.2-0.3-12.1-2.8-16.7-7
			c-5.2-4.7-8.1-11.1-8.3-17.9c-0.3-11.9,2.1-22,13.5-35.3c1.6-2.1,3.1-3.4,3.1-3.4c2.9-3.1,6.2-6.3,10.1-9.8c3,0.5,6,0.8,9,0.8
			c3.8,0,7.5-0.4,11.3-1.3c23.8,19.4,28.6,31.6,28.9,47.2C186.6,164.9,183.9,171.4,179,176.3z"/>
	</g>
</g>
<g>
</g>
<g>
</g>
<g>
</g>
<g>
</g>
<g>
</g>
<g>
</g>
</svg>
