<?xml version="1.0" encoding="utf-8"?>
<!-- Generator: Adobe Illustrator 21.0.0, SVG Export Plug-In . SVG Version: 6.00 Build 0)  -->
<svg version="1.1" id="Layer_1" xmlns="http://www.w3.org/2000/svg" xmlns:xlink="http://www.w3.org/1999/xlink" x="0px" y="0px"
	 width="186.9px" height="190px" viewBox="0 0 186.9 190" style="enable-background:new 0 0 186.9 190;" xml:space="preserve">
<style type="text/css">
	.st0{fill:#010101;}
</style>
<g id="_x38__1_">
	<path class="st0" d="M183.5,183.4h-21.8v-47.6h21.8c1.8,0,3.3-1.5,3.3-3.3s-1.5-3.3-3.3-3.3h-25.1h-17.7c-1.4,0-2.7,0.9-3.1,2.2
		l-13.2-6.1c-9.5-4.5-21-3.2-29.2,3.5c-2.3,1.8-4.8,3.1-7.4,3.6l-19.2-16.6c-4.1-3.5-10.4-3.2-14,0.9c-0.9,0.9-1.5,2-1.9,3.1l-5-4.3
		c-4.4-3.8-11.1-3.4-15,0.9c-1.4,1.5-2.2,3.4-2.6,5.3c-4.5-1.7-9.9-0.2-12.7,4c-3.2,4.7-2.2,11.1,2.4,14.6l36.4,27.6
		c2.3,1.5,4.8,2.6,7.5,3.1l32.4,6.2c0.8,0.1,1.6,0.2,2.4,0.2c2.3,0,4.6-0.7,6.7-1.9l15.2-9.4c2.6-1.6,5.8-1.9,8.6-0.8l8.5,4.6v8.4
		c0,1.8,1.5,3.3,3.3,3.3h14.4v5.2c0,1.8,1.5,3.3,3.3,3.3h25.1c1.8,0,3.3-1.5,3.3-3.3C186.9,184.8,185.4,183.4,183.5,183.4z
		 M59.6,125.7c-1.3-1.3-1.3-3.3-0.1-4.7c1.2-1.4,3.4-1.5,4.7-0.3l13.6,11.7l-8.7-0.5c-0.8-0.1-1.5,0-2.2,0L59.6,125.7
		C59.6,125.8,59.6,125.7,59.6,125.7z M37.6,120.8c1.5-1.6,4-1.8,5.7-0.4l17,14.7c-1.2,1.1-2.1,2.5-2.7,4L37.4,126
		C36.2,124.5,36.2,122.3,37.6,120.8z M132,159.2c-0.1-0.1-0.2-0.1-0.3-0.2c-4.8-2-10.4-1.5-14.8,1.2l-15.2,9.4
		c-1.3,0.8-2.8,1.1-4.3,0.8l-32.4-6.2c-1.8-0.3-3.5-1-4.9-2l-36.2-27.5c-1.7-1.3-2.1-3.8-0.9-5.6c1.2-1.8,3.8-2.3,5.6-1.1l4.5,2.9
		c0,0,0,0,0,0c0.3,0.3,0.7,0.6,1.2,0.7l22.5,14.6c0.2,0.1,0.5,0.3,0.7,0.3c1.2,3.8,4.3,6.8,8.4,7.7l12.9,2.8
		c3.7,0.8,7.6,1.2,11.4,1.2c5,0,10-0.7,14.8-2.1l2.6-0.8c1.8-0.5,2.8-2.3,2.3-4.1c-0.5-1.8-2.3-2.8-4.1-2.3L103,150
		c-7.4,2.1-15.4,2.4-22.9,0.7l-12.9-2.8c-2.3-0.5-3.9-2.7-3.7-5.1c0.2-2.6,2.5-4.5,5.2-4.3l14.1,0.8c1.7,0.1,3.4,0,5.1-0.3
		c4.1-0.7,8.1-2.5,11.6-5.3c6.2-5,14.9-6.1,22.2-2.6l15.7,7.3c0,0,0.1,0,0.1,0v23.7L132,159.2z M144,174.9v-39.1h11.1v39.1H144z"/>
	<path class="st0" d="M169.3,169.9c-0.2-0.1-0.4-0.1-0.6-0.2c-1.1-0.2-2.2,0.1-3,0.9c-0.6,0.6-1,1.5-1,2.3c0,0.9,0.4,1.7,1,2.3
		c0.2,0.2,0.3,0.3,0.5,0.4c0.2,0.1,0.4,0.2,0.6,0.3c0.2,0.1,0.4,0.2,0.6,0.2c0.2,0,0.4,0.1,0.6,0.1c0.2,0,0.4,0,0.7-0.1
		c0.2,0,0.4-0.1,0.6-0.2c0.2-0.1,0.4-0.2,0.6-0.3c0.2-0.1,0.4-0.3,0.5-0.4c0.6-0.6,1-1.5,1-2.3c0-0.9-0.4-1.7-1-2.3
		c-0.2-0.2-0.3-0.3-0.5-0.4C169.7,170.1,169.5,170,169.3,169.9z"/>
	<path class="st0" d="M31.7,61.8v-5.2h14.4c1.8,0,3.3-1.5,3.3-3.3V49l3.9,2.2c0.1,0,0.1,0.1,0.2,0.1c3.7,1.8,7.8,2.7,11.8,2.7
		c3.4,0,6.8-0.6,10-1.9C73,57.3,71.7,63,71.7,68.8c0,22.1,18,40.1,40.1,40.1S152,91,152,68.8c0-4.7-0.8-9.2-2.3-13.4
		c0.7,0.1,1.4,0.2,2.1,0.2c3.5,0,6.9-1.7,8.9-4.7c3.2-4.7,2.2-11.1-2.4-14.6L121.9,8.7c-2.3-1.5-4.8-2.6-7.5-3.1l-22-4.2
		c-9.7-1.8-19.5-1.9-29.2-0.2c-0.1,0-0.3,0.1-0.4,0.1L49.5,5.5V5.3C49.5,3.5,48,2,46.1,2H28.4H3.3C1.5,2,0,3.5,0,5.3
		c0,1.8,1.5,3.3,3.3,3.3h21.8v49.8H3.3C1.5,58.5,0,60,0,61.8c0,1.8,1.5,3.3,3.3,3.3h25.1C30.3,65.1,31.7,63.7,31.7,61.8z
		 M111.8,102.3c-18.5,0-33.5-15-33.5-33.5c0-9.3,3.7-17.9,10.4-24.3c0.8-0.3,1.6-0.5,2.5-0.6c1.2-0.2,2.5-0.3,3.7-0.2l14,0.8
		c5.4,0.4,10.2-3,11.8-8c14.4,3.9,24.6,17.1,24.6,32.3C145.3,87.3,130.3,102.3,111.8,102.3z M64.5,7.7C73.3,6.2,82.3,6.3,91.1,8
		l22,4.2c1.8,0.3,3.5,1,4.9,2l36.2,27.5c1.7,1.3,2.1,3.8,0.9,5.6c-1.2,1.8-3.8,2.3-5.7,1.1l-5.1-3.1c-5.6-7.7-13.9-13.3-23.6-15.5
		c-1.2-3.7-4.3-6.7-8.4-7.6l-12.9-2.8c-8.6-1.9-17.7-1.6-26.1,0.8l-2.6,0.8c-1.8,0.5-2.8,2.3-2.3,4.1c0.5,1.8,2.3,2.8,4.1,2.3
		l2.6-0.8c7.4-2.1,15.4-2.4,22.9-0.7l12.9,2.8c2.3,0.5,3.9,2.7,3.7,5.1c-0.2,2.6-2.6,4.5-5.2,4.3l-14.1-0.8c-1.7-0.1-3.4,0-5.1,0.3
		c-4.1,0.7-8.1,2.5-11.6,5.3c-6.2,5-14.8,6.1-22,2.7l-7.1-4V12.4L64.5,7.7z M42.8,50H31.7V8.7h11.1V50z"/>
	<path class="st0" d="M16.1,50c0.1,0.2,0.2,0.3,0.4,0.5c0.6,0.6,1.5,1,2.3,1c0.9,0,1.7-0.4,2.3-1c0.2-0.2,0.3-0.3,0.4-0.5
		c0.1-0.2,0.2-0.4,0.3-0.6c0.1-0.2,0.1-0.4,0.2-0.6c0-0.2,0.1-0.4,0.1-0.7c0-0.2,0-0.4-0.1-0.6c0-0.2-0.1-0.4-0.2-0.6
		c-0.1-0.2-0.2-0.4-0.3-0.6c-0.1-0.2-0.3-0.4-0.4-0.5c-1.2-1.2-3.5-1.2-4.7,0c-0.2,0.2-0.3,0.3-0.4,0.5c-0.1,0.2-0.2,0.4-0.3,0.6
		c-0.1,0.2-0.2,0.4-0.2,0.6c0,0.2-0.1,0.4-0.1,0.6c0,0.2,0,0.4,0.1,0.7c0,0.2,0.1,0.4,0.2,0.6C15.9,49.6,15.9,49.8,16.1,50z"/>
	<path class="st0" d="M119.1,61c0,1.8,1.5,3.3,3.3,3.3c1.8,0,3.3-1.5,3.3-3.3c0-5.1-3.9-8.6-10.2-9.6v-1.9c0-1.8-1.5-3.3-3.3-3.3
		c-1.8,0-3.3,1.5-3.3,3.3v1.8c-6.8,0.8-11,4.4-11,9.7c0,6.1,4.2,10.1,11,11v7.7c-2.4-0.4-4.4-1.4-4.4-3c0-1.8-1.5-3.3-3.3-3.3
		c-1.8,0-3.3,1.5-3.3,3.3c0,5.3,4.2,8.9,11,9.7v2.9c0,1.8,1.5,3.3,3.3,3.3c1.8,0,3.3-1.5,3.3-3.3v-3c6.3-1,10.2-4.5,10.2-9.6
		c0-3-1.1-9.5-10.2-10.9v-7.7C117.6,58.6,119.1,59.5,119.1,61z M104.5,61c0-1.6,2-2.6,4.4-3v7.3C104.5,64.5,104.5,61.9,104.5,61z
		 M119.1,76.7c0,1.4-1.6,2.3-3.6,2.8v-7C119.1,73.4,119.1,75.5,119.1,76.7z"/>
	<path class="st0" d="M95.7,48.1c-1.3-1.3-3.4-1.3-4.7,0c-11.4,11.4-11.4,30.1,0,41.5c0.6,0.6,1.5,1,2.3,1c0.9,0,1.7-0.3,2.3-1
		c1.3-1.3,1.3-3.4,0-4.7c-8.9-8.9-8.9-23.3,0-32.1C97,51.5,97,49.4,95.7,48.1z"/>
	<path class="st0" d="M127.9,48.1c-1.3,1.3-1.3,3.4,0,4.7c8.8,8.9,8.8,23.3,0,32.1c-1.3,1.3-1.3,3.4,0,4.7c0.6,0.6,1.5,1,2.3,1
		c0.9,0,1.7-0.3,2.3-1c11.4-11.4,11.4-30.1,0-41.5C131.3,46.8,129.2,46.8,127.9,48.1z"/>
</g>
<g>
</g>
<g>
</g>
<g>
</g>
<g>
</g>
<g>
</g>
<g>
</g>
</svg>
