<?xml version="1.0" encoding="utf-8"?>
<!-- Generator: Adobe Illustrator 21.0.0, SVG Export Plug-In . SVG Version: 6.00 Build 0)  -->
<svg version="1.1" id="Layer_1" xmlns="http://www.w3.org/2000/svg" xmlns:xlink="http://www.w3.org/1999/xlink" x="0px" y="0px"
	 width="132.3px" height="207.9px" viewBox="0 0 132.3 207.9" style="enable-background:new 0 0 132.3 207.9;" xml:space="preserve"
	>
<style type="text/css">
	.st0{fill:#010101;stroke:#000000;stroke-miterlimit:10;}
</style>
<g>
	<g>
		<path class="st0" d="M132.1,46.2l-1.7-13.3c-1.5-11.7-7.4-22.3-16.6-29.7c-1.9-1.5-4.3-2.4-6.7-2.4s-4.8,0.8-6.7,2.4
			c-9.2,7.4-15.1,18-16.6,29.7L82,46.2c-0.9,7,1.4,13.9,6.2,18.9c0,0,0,0,0,0L95,72c2.5,2.5,3.9,6,3.7,9.6l-5.3,113.1
			c-0.1,3.2,1.1,6.4,3.5,8.8c2.7,2.8,6.3,4.3,10.1,4.3c3.7,0,7.4-1.6,10.1-4.3c2.4-2.5,3.6-5.6,3.5-8.9l-0.6-12.3
			c-0.1-1.7-1.5-3-3.2-2.9c-1.7,0.1-3,1.5-2.9,3.2l0.6,12.3c0.1,1.6-0.6,3.1-1.8,4.4c-1.5,1.6-3.6,2.5-5.7,2.5s-4.2-0.9-5.7-2.5
			c-1.2-1.3-1.9-2.9-1.8-4.4l5.3-113.1c0.2-5.3-1.8-10.4-5.5-14.1L92.6,61c-3.6-3.8-5.2-8.8-4.6-14l1.7-13.3
			c1.3-10.2,6.4-19.3,14.4-25.8c0.8-0.7,1.9-1,2.9-1s2.1,0.4,2.9,1c8,6.4,13.1,15.6,14.4,25.8l1.7,13.3c0.7,5.1-1,10.2-4.6,14
			l-6.7,6.8c-3.7,3.7-5.7,8.9-5.5,14.1l4,86.7c0.1,1.7,1.5,3,3.2,2.9c1.7-0.1,3-1.5,2.9-3.2l-4-86.7c-0.2-3.6,1.2-7.1,3.7-9.6
			l6.8-6.8c0,0,0,0,0,0C130.7,60.1,133,53.2,132.1,46.2z"/>
	</g>
</g>
<g>
	<g>
		<path class="st0" d="M55.8,40.7H42.5V19.1h5.2c5,0,9.2-4.1,9.2-9.2s-4.1-9.2-9.2-9.2H14.6c-5,0-9.2,4.1-9.2,9.2s4.1,9.2,9.2,9.2
			h5.2v21.7H6.5c-2.3,0-4.2,1.9-4.2,4.2v6.3c0,2.3,1.9,4.2,4.2,4.2h2.8V139c0,5.8,3.8,10.7,9,12.4l0.6,4.5c0.5,3.7,3.6,6.4,7.3,6.4
			h1.8v42.6c0,1.7,1.4,3,3,3c1.7,0,3-1.4,3-3v-42.6H36c3.7,0,6.8-2.8,7.3-6.4l0.6-4.5c5.2-1.7,9-6.6,9-12.4V82.9c0-1.7-1.4-3-3-3
			c-1.7,0-3,1.4-3,3V111H15.4V55.4h31.5v13.7c0,1.7,1.4,3,3,3c1.7,0,3-1.4,3-3V55.4h2.8c2.3,0,4.2-1.9,4.2-4.2v-6.3
			C60,42.6,58.1,40.7,55.8,40.7z M14.6,13c-1.7,0-3.1-1.4-3.1-3.1s1.4-3.1,3.1-3.1h33.1c1.7,0,3.1,1.4,3.1,3.1
			c0,1.7-1.4,3.1-3.1,3.1H14.6z M36.4,19.1v21.7H25.8V19.1H36.4z M37.3,155.1c-0.1,0.7-0.7,1.2-1.3,1.2h-9.7c-0.7,0-1.2-0.5-1.3-1.2
			l-0.4-3h13.2L37.3,155.1z M46.9,117.1V139c0,3.9-3.2,7-7,7H22.4c-3.9,0-7-3.2-7-7v-21.9H46.9z M53.9,49.3H8.3v-2.5h45.6V49.3z"/>
	</g>
</g>
<g>
</g>
<g>
</g>
<g>
</g>
<g>
</g>
<g>
</g>
<g>
</g>
</svg>
