<?xml version="1.0" encoding="utf-8"?>
<!-- Generator: Adobe Illustrator 21.0.0, SVG Export Plug-In . SVG Version: 6.00 Build 0)  -->
<svg version="1.1" id="Layer_1" xmlns="http://www.w3.org/2000/svg" xmlns:xlink="http://www.w3.org/1999/xlink" x="0px" y="0px"
	 width="177.4px" height="200.5px" viewBox="0 0 177.4 200.5" style="enable-background:new 0 0 177.4 200.5;" xml:space="preserve"
	>
<style type="text/css">
	.st0{fill:#010101;}
</style>
<path class="st0" d="M176.9,188.3l-15.1-42.4c-0.2-0.6-0.2-1.3-0.1-1.9l2.2-9c0.5-2,0.4-4-0.4-5.9l-18.2-45.6
	c1.9-1.8,3.1-4.4,3.1-7.1V61.8c0-5.6-3.5-10.5-8.8-12.2l-10.5-3.5v-5.9c3.9-3.5,6.5-8.7,6.5-14.4l0-5.9c0-10.8-8.9-20-19.7-19.9
	c-10.5,0.2-19,8.8-19,19.4v6.5c0,7.1,3.9,13.4,9.7,16.7v3.6L74.2,58V16.1C74.2,7.2,67,0,58.1,0L10,0C4.9,0,0.4,3.9,0,9
	c-0.4,5.6,4.1,10.3,9.7,10.3h9.7v6.8c-7.4,1.5-12.9,8-12.9,15.8v22.6h3.2c1.8,0,3.2,1.4,3.2,3.2v6.5c0,1.8,1.4,3.2,3.2,3.2h0
	c1.8,0,3.2,1.4,3.2,3.2v0c0,1.8,1.4,3.2,3.2,3.2h0c1.8,0,3.2-1.4,3.2-3.2v0c0-1.8,1.4-3.2,3.2-3.2h0c1.8,0,3.2-1.4,3.2-3.2v-6.5
	c0-1.8,1.4-3.2,3.2-3.2h0c1.8,0,3.2-1.4,3.2-3.2V41.9c0-7.8-5.6-14.3-12.9-15.8v-6.8h29v45.8L52.5,66c-3.8,1.4-6.7,4.8-7.3,8.8
	C44.5,81,49,86.4,54.9,87v38.8H29.1c-1.8,0-3.2-1.4-3.2-3.2v-3.2c0-1.8-1.4-3.2-3.2-3.2h0c-1.8,0-3.2,1.4-3.2,3.2v3.2
	c0,5.3,4.3,9.7,9.7,9.7h25.8v8c-2.5,3-3.8,7-2.9,11.4c0.3,1.5,0.9,2.9,1.6,4.2l1.3,2.3v38.7c0,1.8,1.4,3.2,3.2,3.2h0
	c1.8,0,3.2-1.4,3.2-3.2v-27.4l0.2,0.4c1.5,2.6,3.7,4.6,6.2,5.9v21.1c0,1.8,1.4,3.2,3.2,3.2h0c1.8,0,3.2-1.4,3.2-3.2v-19.4
	c0.1,0,0.3,0,0.4,0c2.3,0,4.7-0.6,6.7-1.6l15.4-7.7v10.5l-7.5,3.8c-3,1.5-5.2,4.5-5.4,7.9c-0.3,5.3,3.9,9.7,9.2,9.7h20.3
	c5.1,0,9.2-4.1,9.2-9.2v-35.6l14.3-7.2l-0.1-0.2l4.7,2.4c0.7,0.4,1.3,1,1.5,1.7l17.1,42.7c1.3,3.3,4.5,5.5,8.1,5.5h0.2
	c4.3,0,8.2-3,8.9-7.2C177.6,191.3,177.4,189.7,176.9,188.3z M22.6,71L22.6,71c-1.8,0-3.2-1.4-3.2-3.2v0c0-1.8,1.4-3.2,3.2-3.2h0
	c1.8,0,3.2,1.4,3.2,3.2v0C25.8,69.5,24.4,71,22.6,71z M32.3,41.9v16.1H12.9V41.9c0-5.3,4.3-9.7,9.7-9.7S32.3,36.6,32.3,41.9z
	 M99.4,159.6l-1.1-8.4l8.9,4.5L99.4,159.6z M59,152.4c-0.6-1.1-0.9-2.2-0.9-3.5c0-3.8,3.1-7,7-7h0.5c1.5,0,3,0.5,4.2,1.4l-7.9,13.8
	L59,152.4z M74.2,81.1l22.6-8.7v62l-18.3,9.8l-1.8-2.7c-0.7-1.1-1.5-2-2.5-2.8L74.2,81.1L74.2,81.1z M139.6,86.7l3.5,8.9l-22.9,10.2
	l-3.7-8.6L139.6,86.7z M110.6,99.6l9.5,22.3l-16.9,9V98.9c1.4,0.7,3,1.1,4.7,1.1C108.9,100,109.8,99.9,110.6,99.6z M108.6,149
	l-11.1-5.6l-0.2-2l9.8-5.2L108.6,149z M91.1,144.8l1.3,10.7L81.3,150L91.1,144.8z M81.8,157.4l11,5.5l-9.7,4.8L81.8,157.4z
	 M115.4,151.6l-0.9-6.9l7.3,3.7L115.4,151.6z M113.5,137l-0.5-4l9.7-5.2l5.6,13.2c0.5,1.2,1.2,2.2,2.1,3l-1.4,0.7L113.5,137z
	 M122.8,111.7l22.7-10.1l4.1,10.1l-22.5,10L122.8,111.7z M103.3,19.4c0-7.1,5.8-12.9,12.9-12.9c7.1,0,12.9,5.8,12.9,12.9v6.5
	c0,7.1-5.8,12.9-12.9,12.9c-7.1,0-12.9-5.8-12.9-12.9V19.4z M112.9,48.2v-3.3c1.1,0.2,2.1,0.3,3.2,0.3c2.3,0,4.4-0.4,6.5-1.1v4.9
	c0,1.1,0.7,2,1.7,2.4l13.2,4.4c2.6,0.9,4.4,3.3,4.4,6.1v14.7c0,1.3-0.7,2.4-1.9,2.9l-30.1,13.7c-0.6,0.3-1.3,0.4-2,0.4
	c-2.6,0-4.8-2.2-4.7-4.8c0-1.8,1.2-3.5,2.8-4.3l25.4-12.7c1.2-0.6,1.7-2.1,1.1-3.4l-0.6-1.3c-0.6-1.2-2.1-1.7-3.4-1.1l-25.3,12.7
	V63.8c0-1.4-1.1-2.5-2.5-2.5h-1.4c-1.4,0-2.5,1.1-2.5,2.5v0c0,1-0.6,2-1.6,2.3l-21,8.1v-9.3l36.4-13.4C112,51,112.9,49.7,112.9,48.2
	z M9.7,12.9c-1.8,0-3.2-1.4-3.2-3.2s1.4-3.2,3.2-3.2h9.7v6.5H9.7z M25.8,12.9V6.5h32.3c5.3,0,9.7,4.3,9.7,9.7v119.6
	c-0.7-0.1-1.5-0.2-2.2-0.2h-0.5c-1.3,0-2.5,0.2-3.7,0.6V19.4c0-3.6-2.9-6.5-6.5-6.5H25.8z M51.6,76.3c0-1.8,1.1-3.5,2.9-4.1l0.4-0.1
	v8.4C53,80,51.6,78.3,51.6,76.3z M67.2,166.6l-1.7-2.9l8.4-14.8l0.4,0.6l2.6,21.1C73.3,171.6,69.1,170,67.2,166.6z M116.2,190.8
	c0,1.5-1.2,2.8-2.8,2.8H93.1c-1.5,0-2.8-1.2-2.8-2.8c0-1,0.6-2,1.5-2.5l11.4-5.7v-17.7l12.9-6.5V190.8z M168.7,193.5h-0.5
	c-0.9,0-1.8-0.6-2.1-1.4l-17.1-42.7c-0.9-2.2-2.5-4-4.7-5.1l-8.6-4.3c-0.7-0.3-1.2-0.9-1.5-1.6l-4.7-10.9l22.4-9.9l5.5,13.8
	c0.3,0.6,0.3,1.3,0.1,2l-2.2,9c-0.5,1.9-0.4,3.8,0.3,5.6l15.1,42.4c0.1,0.2,0.1,0.5,0.1,0.8C171,192.5,170,193.5,168.7,193.5z"/>
<path class="st0" d="M22.6,103.2L22.6,103.2c1.8,0,3.2,1.4,3.2,3.2l0,0c0,1.8-1.4,3.2-3.2,3.2h0c-1.8,0-3.2-1.4-3.2-3.2l0,0
	C19.4,104.7,20.8,103.2,22.6,103.2z"/>
<path class="st0" d="M22.6,90.3L22.6,90.3c1.8,0,3.2,1.4,3.2,3.2v0c0,1.8-1.4,3.2-3.2,3.2h0c-1.8,0-3.2-1.4-3.2-3.2v0
	C19.4,91.8,20.8,90.3,22.6,90.3z"/>
<g>
</g>
<g>
</g>
<g>
</g>
<g>
</g>
<g>
</g>
<g>
</g>
</svg>
