<?xml version="1.0" encoding="utf-8"?>
<!-- Generator: Adobe Illustrator 21.0.0, SVG Export Plug-In . SVG Version: 6.00 Build 0)  -->
<svg version="1.1" id="Layer_1" xmlns="http://www.w3.org/2000/svg" xmlns:xlink="http://www.w3.org/1999/xlink" x="0px" y="0px"
	 width="179.3px" height="200px" viewBox="0 0 179.3 200" style="enable-background:new 0 0 179.3 200;" xml:space="preserve">
<style type="text/css">
	.st0{fill:#010101;}
</style>
<g>
	<g>
		<g>
			<path class="st0" d="M173,11.3l-4.2-9.6c-0.4-0.9-1.2-1.5-2.2-1.7s-2,0.1-2.6,0.8L36,128.9c-1.2,1.2-1.2,3,0,4.2
				c1.2,1.2,3,1.2,4.2,0l18.5-18.5l26.7,26.7L38,188.7c-7.2,7.2-19,7.2-26.2,0l-0.4-0.4c-7.2-7.2-7.2-19,0-26.2l20-20
				c1.2-1.2,1.2-3,0-4.2c-1.2-1.2-3-1.2-4.2,0l-20,20c-9.5,9.5-9.5,25.1,0,34.6l0.4,0.4c4.8,4.8,11,7.2,17.3,7.2s12.5-2.4,17.3-7.2
				l47.4-47.4l6.2,6.2c0.6,0.6,1.3,0.9,2.1,0.9s1.5-0.3,2.1-0.9l57.3-57.3C168,83.7,175.1,70.2,178,55.3
				C180.8,40.4,179.1,25.2,173,11.3z M172.1,54.2c-2.6,13.7-9.2,26.2-19,36l-55.2,55.2l-5.4-5.4c-0.1-2.9,0.7-12.7,12.3-24.3
				c2-2,4.2-3.8,6.9-5.5c1.4-0.9,1.8-2.7,0.9-4.1c-0.9-1.4-2.7-1.8-4.1-0.9c-3,2-5.6,4-7.9,6.3c-9.1,9.1-12.3,17.4-13.4,23.1
				l-24.2-24.2L165.2,8.1l2.4,5.6c1,2.3,1.9,4.6,2.6,7c-5.5,4.4-22.1,19.8-27.7,47.9c-3.7,18.7-12.4,24.6-23.3,30.5
				c-1.4,0.8-2,2.6-1.2,4c0.5,1,1.6,1.6,2.6,1.6c0.5,0,1-0.1,1.4-0.4c5.3-2.9,10.9-6.1,15.6-11.4c5.2-5.8,8.7-13.4,10.6-23.2
				c4.6-23,17.4-37,23.6-42.7C173.8,36,173.9,45.1,172.1,54.2z"/>
		</g>
	</g>
	<g>
		<g>
			<path class="st0" d="M169.3,131.1l-10.6-10.6c-1.2-1.2-3-1.2-4.2,0L144,131.1c-7,7-7,18.3,0,25.3c3.5,3.5,8.1,5.2,12.7,5.2
				c4.6,0,9.2-1.7,12.7-5.2C176.3,149.4,176.3,138,169.3,131.1z M165.1,152.2c-2.3,2.3-5.3,3.5-8.5,3.5c-3.2,0-6.2-1.2-8.5-3.5
				c-2.3-2.3-3.5-5.3-3.5-8.5c0-3.2,1.2-6.2,3.5-8.5l8.5-8.5l8.5,8.5c2.3,2.3,3.5,5.3,3.5,8.5S167.4,149.9,165.1,152.2z"/>
		</g>
	</g>
	<g>
		<g>
			<path class="st0" d="M24.5,168c-4.7,0-8.6,3.8-8.6,8.6s3.8,8.6,8.6,8.6s8.6-3.8,8.6-8.6S29.3,168,24.5,168z M24.5,179.3
				c-1.5,0-2.6-1.2-2.6-2.6s1.2-2.6,2.6-2.6c1.5,0,2.6,1.2,2.6,2.6C27.2,178.1,26,179.3,24.5,179.3z"/>
		</g>
	</g>
	<g>
		<g>
			<path class="st0" d="M60.6,131.6c-4.7,0-8.6,3.8-8.6,8.6s3.8,8.6,8.6,8.6s8.6-3.8,8.6-8.6S65.4,131.6,60.6,131.6z M60.6,142.8
				c-1.5,0-2.6-1.2-2.6-2.6s1.2-2.6,2.6-2.6c1.5,0,2.6,1.2,2.6,2.6S62.1,142.8,60.6,142.8z"/>
		</g>
	</g>
</g>
<g>
</g>
<g>
</g>
<g>
</g>
<g>
</g>
<g>
</g>
<g>
</g>
</svg>
