<?xml version="1.0" encoding="utf-8"?>
<!-- Generator: Adobe Illustrator 21.0.0, SVG Export Plug-In . SVG Version: 6.00 Build 0)  -->
<svg version="1.1" id="Layer_1" xmlns="http://www.w3.org/2000/svg" xmlns:xlink="http://www.w3.org/1999/xlink" x="0px" y="0px"
	 width="250.4px" height="125.6px" viewBox="0 0 250.4 125.6" style="enable-background:new 0 0 250.4 125.6;" xml:space="preserve"
	>
<style type="text/css">
	.st0{fill:#010101;}
</style>
<g>
	<path class="st0" d="M246.3,78.5c2,0,3.7-1.6,3.7-3.7v-28c0-2-1.6-3.7-3.7-3.7l-23.2,0c-3.3,0-6.4-1.1-8.8-3.2
		c-8.9-7.7-20.2-11.9-32-11.9h-13.2c-7,0-12.7,5.7-12.7,12.7v5.4h-19.2c-5.9,0-10.9,4-12.3,9.5c-1.4-5.5-6.4-9.5-12.3-9.5H93.5v-5.4
		c0-7-5.7-12.7-12.7-12.7H67.6c-11.8,0-23.1,4.2-32,11.9c-2.4,2.1-5.5,3.2-8.8,3.2l-0.5,0c-2,0-3.7,1.6-3.7,3.7c0,2,1.6,3.7,3.7,3.7
		h0c0.3,0,7.7,0.6,14.1-5c7.5-6.5,17.2-10.1,27.2-10.1h13.2c3,0,5.4,2.4,5.4,5.4v30.5c0,3-2.4,5.4-5.4,5.4c-3,0-5.4-2.4-5.4-5.4
		V51.1c0-2-1.6-3.7-3.7-3.7s-3.7,1.6-3.7,3.7c0,4.7-3.8,8.5-8.5,8.5c-4.7,0-8.5-3.8-8.5-8.5c0-2-1.6-3.7-3.7-3.7
		c-2,0-3.7,1.6-3.7,3.7c0,8.7,7.1,15.8,15.8,15.8c3.1,0,6-0.9,8.5-2.5v6.8c0,7,5.7,12.7,12.7,12.7c3.5,0,6.8-1.5,9.1-3.8
		c0.4,1.7,1.2,3.2,2.2,4.5c-5.1,3.7-6.7,10.4-4,15.9c-8.1,1.5-12.6,10.3-9.1,17.8H67.6c-10,0-19.7-3.6-27.2-10.1
		c-3.7-3.2-8.5-5-13.6-5l-19.5,0V50.5l2,0c2,0,3.7-1.6,3.7-3.7c0-2-1.6-3.7-3.7-3.7c-3.4,0-2.3,0-5.6,0c-2,0-3.7,1.6-3.7,3.7v60
		c0,2,1.6,3.7,3.7,3.7l23.2,0c3.3,0,6.4,1.1,8.8,3.2c8.9,7.7,20.2,11.9,32,11.9h36.7c9.4,0,15.5-9.9,11.4-18.3
		c4.2-0.8,7.6-3.6,9.3-7.4c1.7,3.8,5.1,6.6,9.3,7.4c-4.1,8.4,2,18.3,11.4,18.3h36.7c11.8,0,23.1-4.2,32-11.9
		c2.4-2.1,5.5-3.2,8.8-3.2l23.2,0c2,0,3.7-1.6,3.7-3.7V91.9c0-2-1.6-3.7-3.7-3.7c-2,0-3.7,1.6-3.7,3.7v11.3l-19.5,0
		c-5,0-9.9,1.8-13.6,5c-7.5,6.5-17.2,10.1-27.2,10.1h-11.4c3.5-7.5-1-16.3-9.1-17.8c2.7-5.5,1.1-12.2-4-15.9c1-1.3,1.8-2.8,2.2-4.5
		c2.3,2.4,5.5,3.8,9.1,3.8c7,0,12.7-5.7,12.7-12.7v-6.8c2.5,1.6,5.4,2.5,8.5,2.5c8.7,0,15.8-7.1,15.8-15.8c0-2-1.6-3.7-3.7-3.7
		c-2,0-3.7,1.6-3.7,3.7c0,4.7-3.8,8.5-8.5,8.5c-4.7,0-8.5-3.8-8.5-8.5c0-2-1.6-3.7-3.7-3.7c-2,0-3.7,1.6-3.7,3.7v20.1
		c0,3-2.4,5.4-5.4,5.4c-3,0-5.4-2.4-5.4-5.4V40.7c0-3,2.4-5.4,5.4-5.4h13.2c10,0,19.7,3.6,27.2,10.1c3.7,3.2,8.5,5,13.6,5l19.5,0
		v24.4C242.7,76.8,244.3,78.5,246.3,78.5z M102.2,71.4H116c3,0,5.4,2.4,5.4,5.4s-2.4,5.4-5.4,5.4h-13.8c-3,0-5.4-2.4-5.4-5.4
		S99.2,71.4,102.2,71.4z M125,67.9c-0.6-0.6-1.3-1.2-2-1.7c0.9-1.3,1.6-2.7,2-4.3c0.4,1.6,1.1,3,2,4.3
		C126.3,66.7,125.6,67.3,125,67.9z M125,85.7c0.5,0.5,1,1,1.6,1.4c-0.6,0.8-1.2,1.7-1.6,2.7c-0.4-1-1-1.9-1.6-2.7
		C124,86.7,124.5,86.2,125,85.7z M134,82.2c-3,0-5.4-2.4-5.4-5.4s2.4-5.4,5.4-5.4h13.8c3,0,5.4,2.4,5.4,5.4s-2.4,5.4-5.4,5.4H134z
		 M137.3,53.4h13.8c3,0,5.4,2.4,5.4,5.4c0,3-2.4,5.4-5.4,5.4h-13.8c-3,0-5.4-2.4-5.4-5.4C131.9,55.8,134.3,53.4,137.3,53.4z
		 M112.7,53.4c3,0,5.4,2.4,5.4,5.4c0,3-2.4,5.4-5.4,5.4H98.9c-3,0-5.4-2.4-5.4-5.4c0-3,2.4-5.4,5.4-5.4H112.7z M104.4,118.3H90.6
		c-3,0-5.4-2.4-5.4-5.4c0-3,2.4-5.4,5.4-5.4h13.8c3,0,5.4,2.4,5.4,5.4C109.7,115.9,107.3,118.3,104.4,118.3z M113.4,100.2H99.6
		c-3,0-5.4-2.4-5.4-5.4c0-3,2.4-5.4,5.4-5.4h13.8c3,0,5.4,2.4,5.4,5.4C118.7,97.8,116.3,100.2,113.4,100.2z M131.3,94.9
		c0-3,2.4-5.4,5.4-5.4h13.8c3,0,5.4,2.4,5.4,5.4c0,3-2.4,5.4-5.4,5.4h-13.8C133.7,100.2,131.3,97.8,131.3,94.9z M164.8,112.9
		c0,3-2.4,5.4-5.4,5.4h-13.8c-3,0-5.4-2.4-5.4-5.4s2.4-5.4,5.4-5.4h13.8C162.4,107.6,164.8,110,164.8,112.9z"/>
	<path class="st0" d="M103.9,30.1c1.4,1.4,3.7,1.4,5.2,0c1.4-1.4,1.4-3.7,0-5.2L96.7,12.4c-1.4-1.4-3.7-1.4-5.2,0
		c-1.4,1.4-1.4,3.7,0,5.2L103.9,30.1z"/>
	<path class="st0" d="M146.1,30.1l12.4-12.4c1.4-1.4,1.4-3.7,0-5.2c-1.4-1.4-3.7-1.4-5.2,0l-12.4,12.4c-1.4,1.4-1.4,3.7,0,5.2
		C142.3,31.5,144.7,31.5,146.1,30.1z"/>
	<path class="st0" d="M125,24.9c2,0,3.7-1.6,3.7-3.7V3.7c0-2-1.6-3.7-3.7-3.7c-2,0-3.7,1.6-3.7,3.7v17.6
		C121.3,23.3,123,24.9,125,24.9z"/>
</g>
<g>
</g>
<g>
</g>
<g>
</g>
<g>
</g>
<g>
</g>
<g>
</g>
</svg>
