<?xml version="1.0" encoding="iso-8859-1"?>
<!-- Generator: Adobe Illustrator 19.0.0, SVG Export Plug-In . SVG Version: 6.00 Build 0)  -->
<svg version="1.1" id="Capa_1" xmlns="http://www.w3.org/2000/svg" xmlns:xlink="http://www.w3.org/1999/xlink" x="0px" y="0px"
	 viewBox="0 0 512.001 512.001" style="enable-background:new 0 0 512.001 512.001;" xml:space="preserve">
<g>
	<g>
		<path d="M293.065,389.977H45.804C20.547,389.977,0,410.525,0,435.781v67.55c0,4.781,3.876,8.656,8.656,8.656h321.556
			c4.781,0,8.656-3.876,8.656-8.656v-67.55C338.869,410.525,318.322,389.977,293.065,389.977z M321.556,494.674H17.313v-58.893
			c0-15.709,12.78-28.491,28.491-28.491h247.262c15.709,0,28.491,12.78,28.491,28.491V494.674z"/>
	</g>
</g>
<g>
	<g>
		<path d="M320.696,128.522l-95.545-95.545c-1.623-1.623-3.825-2.535-6.121-2.535c-2.296,0-4.498,0.912-6.121,2.535L93.609,152.278
			c-3.381,3.38-3.381,8.861,0,12.241l95.544,95.544c1.69,1.69,3.906,2.535,6.121,2.535c2.216,0,4.431-0.845,6.121-2.534
			l119.301-119.3C324.076,137.383,324.076,131.902,320.696,128.522z M195.274,241.7l-83.302-83.302L219.029,51.341l83.302,83.302
			L195.274,241.7z"/>
	</g>
</g>
<g>
	<g>
		<path d="M200.606,247.032l-93.961-93.962c-10.507-10.506-27.602-10.506-38.108,0c-5.09,5.09-7.893,11.856-7.893,19.054
			s2.803,13.964,7.893,19.053l93.961,93.962c5.253,5.252,12.153,7.879,19.053,7.879c6.9,0,13.801-2.626,19.055-7.877
			c5.09-5.09,7.893-11.857,7.893-19.054S205.695,252.122,200.606,247.032z M188.361,272.895c-3.754,3.756-9.865,3.757-13.623,0
			l-93.962-93.963c-1.819-1.819-2.821-4.237-2.821-6.81c0-2.573,1.001-4.992,2.821-6.812c3.757-3.756,9.867-3.756,13.624,0
			l93.961,93.962C192.117,263.028,192.117,269.139,188.361,272.895z"/>
	</g>
</g>
<g>
	<g>
		<path d="M345.771,101.867L251.81,7.906c-5.09-5.09-11.856-7.893-19.054-7.893s-13.965,2.803-19.054,7.891
			c-5.09,5.089-7.893,11.856-7.893,19.054s2.803,13.964,7.893,19.054l93.96,93.961h0.001c5.252,5.252,12.153,7.878,19.053,7.878
			c6.899,0,13.8-2.626,19.055-7.877C356.276,129.468,356.276,112.372,345.771,101.867z M333.528,127.73
			c-3.758,3.757-9.867,3.757-13.625,0l-93.96-93.961c-1.819-1.819-2.821-4.238-2.821-6.812c0-2.573,1.002-4.992,2.822-6.812
			c1.819-1.819,4.238-2.821,6.812-2.821c2.573,0,4.992,1.001,6.812,2.821l93.96,93.961
			C337.284,117.863,337.284,123.974,333.528,127.73z"/>
	</g>
</g>
<g>
	<g>
		<path d="M502.812,397.737v-0.001L277.146,172.072c-1.624-1.623-3.825-2.535-6.121-2.535s-4.497,0.912-6.121,2.535l-32.2,32.201
			c-3.381,3.38-3.381,8.861,0,12.241l225.664,225.665c6.127,6.126,14.173,9.189,22.221,9.189c8.047,0,16.096-3.063,22.223-9.19
			C515.063,429.926,515.063,409.989,502.812,397.737z M490.57,429.937c-5.506,5.503-14.458,5.503-19.96,0L251.066,210.393
			l19.959-19.959l219.544,219.544C496.071,415.481,496.071,424.434,490.57,429.937z"/>
	</g>
</g>
<g>
</g>
<g>
</g>
<g>
</g>
<g>
</g>
<g>
</g>
<g>
</g>
<g>
</g>
<g>
</g>
<g>
</g>
<g>
</g>
<g>
</g>
<g>
</g>
<g>
</g>
<g>
</g>
<g>
</g>
</svg>
