<?xml version="1.0" encoding="utf-8"?>
<!-- Generator: Adobe Illustrator 21.0.0, SVG Export Plug-In . SVG Version: 6.00 Build 0)  -->
<svg version="1.1" id="Layer_1" xmlns="http://www.w3.org/2000/svg" xmlns:xlink="http://www.w3.org/1999/xlink" x="0px" y="0px"
	 width="512px" height="512px" viewBox="0 0 512 512" style="enable-background:new 0 0 512 512;" xml:space="preserve">
<path d="M455.6,308.8c4.1,0,7.5-3.4,7.5-7.5V44c0-24.3-19.8-44-44-44H92C67.8,0,48,19.8,48,44V468c0,24.3,19.8,44,44,44h327
	c24.3,0,44-19.8,44-44V301c0-4.1-3.4-7.5-7.5-7.5s-7.5,3.4-7.5,7.5V468c0,16-13,29-29,29H92c-16,0-29-13-29-29V44c0-16,13-29,29-29
	h327c16,0,29,13,29,29v257.3C448.1,305.5,451.5,308.8,455.6,308.8z"/>
<path d="M410,70.2c0-13.7-11.1-24.8-24.8-24.8H125.8c-13.7,0-24.8,11.1-24.8,24.8v53c0,13.7,11.1,24.8,24.8,24.8h192.8
	c4.1,0,7.5-3.4,7.5-7.5c0-4.1-3.4-7.5-7.5-7.5H125.8c-5.4,0-9.8-4.4-9.8-9.8v-53c0-5.4,4.4-9.8,9.8-9.8h259.5c5.4,0,9.8,4.4,9.8,9.8
	v53c0,5.4-4.4,9.8-9.8,9.8h-64.9c-4.1,0-7.5,3.4-7.5,7.5c0,4.1,3.4,7.5,7.5,7.5h64.9c13.7,0,24.8-11.1,24.8-24.8V70.2z"/>
<path d="M183.9,196.5c0-11.1-9-20.1-20.1-20.1h-42.7c-11.1,0-20.1,9-20.1,20.1v42.7c0,11.1,9,20.1,20.1,20.1h42.7
	c11.1,0,20.1-9,20.1-20.1V196.5z M168.9,239.2c0,2.8-2.3,5.1-5.1,5.1h-42.7c-2.8,0-5.1-2.3-5.1-5.1v-42.7c0-2.8,2.3-5.1,5.1-5.1
	h42.7c2.8,0,5.1,2.3,5.1,5.1V239.2z"/>
<path d="M297,196.5c0-11.1-9-20.1-20.1-20.1h-42.7c-11.1,0-20.1,9-20.1,20.1v42.7c0,11.1,9,20.1,20.1,20.1h42.7
	c11.1,0,20.1-9,20.1-20.1V196.5z M282,239.2c0,2.8-2.3,5.1-5.1,5.1h-42.7c-2.8,0-5.1-2.3-5.1-5.1v-42.7c0-2.8,2.3-5.1,5.1-5.1h42.7
	c2.8,0,5.1,2.3,5.1,5.1V239.2z"/>
<path d="M410,196.5c0-11.1-9-20.1-20.1-20.1h-42.7c-11.1,0-20.1,9-20.1,20.1v42.7c0,11.1,9,20.1,20.1,20.1H390
	c11.1,0,20.1-9,20.1-20.1V196.5z M395,239.2c0,2.8-2.3,5.1-5.1,5.1h-42.7c-2.8,0-5.1-2.3-5.1-5.1v-42.7c0-2.8,2.3-5.1,5.1-5.1H390
	c2.8,0,5.1,2.3,5.1,5.1V239.2z"/>
<path d="M183.9,300.2c0-11.1-9-20.1-20.1-20.1h-42.7c-11.1,0-20.1,9-20.1,20.1v42.7c0,11.1,9,20.1,20.1,20.1h42.7
	c11.1,0,20.1-9,20.1-20.1V300.2z M168.9,342.9c0,2.8-2.3,5.1-5.1,5.1h-42.7c-2.8,0-5.1-2.3-5.1-5.1v-42.7c0-2.8,2.3-5.1,5.1-5.1
	h42.7c2.8,0,5.1,2.3,5.1,5.1V342.9z"/>
<path d="M297,300.2c0-11.1-9-20.1-20.1-20.1h-42.7c-11.1,0-20.1,9-20.1,20.1v42.7c0,11.1,9,20.1,20.1,20.1h42.7
	c11.1,0,20.1-9,20.1-20.1V300.2z M282,342.9c0,2.8-2.3,5.1-5.1,5.1h-42.7c-2.8,0-5.1-2.3-5.1-5.1v-42.7c0-2.8,2.3-5.1,5.1-5.1h42.7
	c2.8,0,5.1,2.3,5.1,5.1V342.9z"/>
<path d="M390,280.1h-42.7c-11.1,0-20.1,9-20.1,20.1v146.3c0,11.1,9,20.1,20.1,20.1H390c11.1,0,20.1-9,20.1-20.1V300.2
	C410,289.1,401,280.1,390,280.1z M395,446.5c0,2.8-2.3,5.1-5.1,5.1h-42.7c-2.8,0-5.1-2.3-5.1-5.1V300.2c0-2.8,2.3-5.1,5.1-5.1H390
	c2.8,0,5.1,2.3,5.1,5.1V446.5z"/>
<path d="M163.8,383.7h-42.7c-11.1,0-20.1,9-20.1,20.1v42.7c0,11.1,9,20.1,20.1,20.1h42.7c11.1,0,20.1-9,20.1-20.1v-42.7
	C183.9,392.7,174.9,383.7,163.8,383.7z M168.9,446.5c0,2.8-2.3,5.1-5.1,5.1h-42.7c-2.8,0-5.1-2.3-5.1-5.1v-42.7
	c0-2.8,2.3-5.1,5.1-5.1h42.7c2.8,0,5.1,2.3,5.1,5.1V446.5z"/>
<path d="M276.9,383.7h-42.7c-11.1,0-20.1,9-20.1,20.1v42.7c0,11.1,9,20.1,20.1,20.1h42.7c11.1,0,20.1-9,20.1-20.1v-42.7
	C297,392.7,288,383.7,276.9,383.7z M282,446.5c0,2.8-2.3,5.1-5.1,5.1h-42.7c-2.8,0-5.1-2.3-5.1-5.1v-42.7c0-2.8,2.3-5.1,5.1-5.1
	h42.7c2.8,0,5.1,2.3,5.1,5.1V446.5z"/>
</svg>
