<?xml version="1.0" encoding="iso-8859-1"?>
<!-- Generator: Adobe Illustrator 19.0.0, SVG Export Plug-In . SVG Version: 6.00 Build 0)  -->
<svg version="1.1" id="Capa_1" xmlns="http://www.w3.org/2000/svg" xmlns:xlink="http://www.w3.org/1999/xlink" x="0px" y="0px"
	 viewBox="0 0 512 512" style="enable-background:new 0 0 512 512;" xml:space="preserve">
<g>
	<g>
		<path d="M485.052,48.842h-84.211V15.158c0-5.585-4.527-10.105-10.105-10.105c-5.578,0-10.105,4.52-10.105,10.105v33.684H131.369
			V15.158c0-5.585-4.527-10.105-10.105-10.105s-10.105,4.52-10.105,10.105v33.684h-84.21C12.126,48.842,0,60.968,0,75.79V480
			c0,14.82,12.126,26.948,26.948,26.948h458.105c14.82,0,26.947-12.126,26.947-26.948V75.79
			C512,60.968,499.873,48.842,485.052,48.842z M491.789,480c0,3.651-3.086,6.737-6.737,6.737H26.948
			c-3.651,0-6.737-3.086-6.737-6.737V166.736h471.578V480z M491.789,146.526H20.211V75.79c0-3.651,3.086-6.737,6.737-6.737h84.21
			v33.684c0,5.585,4.527,10.105,10.105,10.105s10.105-4.52,10.105-10.105V69.052h249.263v33.685c0,5.585,4.527,10.105,10.105,10.105
			c5.578,0,10.105-4.52,10.105-10.105V69.052h84.21c3.651,0,6.737,3.086,6.737,6.737V146.526z"/>
	</g>
</g>
<g>
	<g>
		<path d="M313.277,283.527c-4.331-3.524-10.699-2.863-14.215,1.462l-53.221,65.456l-34.27-28.55
			c-4.291-3.571-10.657-2.991-14.229,1.294s-2.991,10.657,1.294,14.229l42.119,35.099c2.082,1.725,4.763,2.553,7.445,2.298
			c2.681-0.263,5.168-1.589,6.872-3.685l59.675-73.398C318.262,293.415,317.608,287.049,313.277,283.527z"/>
	</g>
</g>
<g>
	<g>
		<path d="M255.999,210.526c-63.252,0-114.527,51.274-114.527,114.527s51.274,114.527,114.527,114.527
			s114.527-51.274,114.527-114.527S319.252,210.526,255.999,210.526z M255.999,419.368c-52.008,0-94.316-42.308-94.316-94.316
			c0-52.008,42.308-94.316,94.316-94.316c52.008,0,94.316,42.314,94.316,94.316C350.315,377.06,308.008,419.368,255.999,419.368z"/>
	</g>
</g>
<g>
</g>
<g>
</g>
<g>
</g>
<g>
</g>
<g>
</g>
<g>
</g>
<g>
</g>
<g>
</g>
<g>
</g>
<g>
</g>
<g>
</g>
<g>
</g>
<g>
</g>
<g>
</g>
<g>
</g>
</svg>
