<?xml version="1.0" encoding="utf-8"?>
<!-- Generator: Adobe Illustrator 21.0.0, SVG Export Plug-In . SVG Version: 6.00 Build 0)  -->
<svg version="1.1" id="Capa_1" xmlns="http://www.w3.org/2000/svg" xmlns:xlink="http://www.w3.org/1999/xlink" x="0px" y="0px"
	 width="80px" height="80px" viewBox="0 0 60 60" style="enable-background:new 0 0 60 60;" xml:space="preserve">
	<g>
		<path d="M12.5,24h25c0.6,0,1-0.4,1-1s-0.4-1-1-1h-25c-0.6,0-1,0.4-1,1S11.9,24,12.5,24z"/>
		<path d="M12.5,16h10c0.6,0,1-0.4,1-1s-0.4-1-1-1h-10c-0.6,0-1,0.4-1,1S11.9,16,12.5,16z"/>
		<path d="M12.5,32h25c0.6,0,1-0.4,1-1s-0.4-1-1-1h-25c-0.6,0-1,0.4-1,1S11.9,32,12.5,32z"/>
		<path d="M29.5,38h-17c-0.6,0-1,0.4-1,1s0.4,1,1,1h17c0.6,0,1-0.4,1-1S30.1,38,29.5,38z"/>
		<path d="M26.5,46h-14c-0.6,0-1,0.4-1,1s0.4,1,1,1h14c0.6,0,1-0.4,1-1S27.1,46,26.5,46z"/>
		<path d="M48.5,34.4V16.2c0-1-0.4-2-1.1-2.7L33.9,0c0,0,0,0,0,0H3.5c-1.1,0-2,0.9-2,2V58c0,1.1,0.9,2,2,2l41.6,0
			c6.7,0,12.6-4.9,13.3-11.6C59.1,41.7,54.6,35.8,48.5,34.4C48.5,34.4,48.5,34.4,48.5,34.4z M34.5,3.4L45.1,14c0,0,0,0,0,0H34.5
			c0,0,0,0,0,0L34.5,3.4C34.5,3.4,34.5,3.4,34.5,3.4z M38.6,58H3.5c0,0,0,0,0,0V2c0,0,0,0,0,0h29c0,0,0,0,0,0v12c0,1.1,0.9,2,2,2H45
			c0.9,0,1.5,0.7,1.5,1.5V34c-0.3,0-0.7,0-1,0c-7.2,0-13,5.8-13,13c0,0.4,0,0.8,0.1,1.2c0,0.1,0,0.2,0,0.3c0,0.4,0.1,0.8,0.2,1.1
			c0,0,0,0.1,0,0.1c0.1,0.3,0.2,0.7,0.3,1c0,0.1,0,0.2,0.1,0.2c0.1,0.4,0.2,0.7,0.4,1c0,0.1,0.1,0.1,0.1,0.2c0.1,0.3,0.3,0.6,0.4,0.9
			c0,0.1,0.1,0.1,0.1,0.2c0.2,0.3,0.4,0.6,0.6,0.9c0,0.1,0.1,0.1,0.1,0.2c0.2,0.3,0.4,0.5,0.6,0.8c0,0,0.1,0.1,0.1,0.1
			c0.2,0.3,0.5,0.5,0.7,0.8c0.1,0.1,0.1,0.1,0.2,0.2c0.2,0.2,0.5,0.5,0.8,0.7c0,0,0,0,0.1,0.1c0.3,0.2,0.6,0.4,0.9,0.7
			c0.1,0.1,0.1,0.1,0.2,0.1C38.4,57.9,38.5,58,38.6,58z M43.4,57.8c-4.4-0.8-7.9-4.3-8.7-8.7c-1.3-7,4.1-13.1,10.8-13.1
			c0.3,0,0.6,0,0.9,0c0.3,0,0.6,0.1,0.9,0.1l0.4,0.1c5,1.1,8.7,5.5,8.7,10.8C56.5,53.7,50.4,59.1,43.4,57.8z"/>
		<path d="M50.7,41.4l-5.6,8l-3.9-3.2c-0.4-0.4-1.1-0.3-1.4,0.1c-0.4,0.4-0.3,1.1,0.1,1.4l4.8,3.9c0.2,0.1,0.4,0.2,0.6,0.2
			c0,0,0.1,0,0.1,0c0.3,0,0.5-0.2,0.7-0.4l6.2-8.9c0.3-0.5,0.2-1.1-0.3-1.4C51.6,40.9,51,41,50.7,41.4z"/>
	</g>
</svg>
